<?xml version="1.0" encoding="iso-8859-1"?>
<!-- Generator: Adobe Illustrator 19.0.0, SVG Export Plug-In . SVG Version: 6.00 Build 0)  -->
<svg version="1.1" id="Layer_1" xmlns="http://www.w3.org/2000/svg" xmlns:xlink="http://www.w3.org/1999/xlink" x="0px" y="0px"
	 viewBox="0 0 512 512" style="enable-background:new 0 0 512 512;" xml:space="preserve">
<g>
	<g>
		<path d="M177.021,129.634c-34.539,0-62.638,28.099-62.638,62.638s28.099,62.638,62.638,62.638s62.638-28.099,62.638-62.638
			S211.561,129.634,177.021,129.634z M177.021,238.57c-25.529,0-46.298-20.769-46.298-46.298s20.769-46.298,46.298-46.298
			s46.298,20.769,46.298,46.298S202.55,238.57,177.021,238.57z"/>
	</g>
</g>
<g>
	<g>
		<path d="M334.979,129.634c-34.539,0-62.638,28.099-62.638,62.638s28.099,62.638,62.638,62.638
			c34.539,0,62.638-28.099,62.638-62.638S369.518,129.634,334.979,129.634z M334.979,238.57c-25.529,0-46.298-20.769-46.298-46.298
			s20.769-46.298,46.298-46.298c25.529,0,46.298,20.769,46.298,46.298S360.508,238.57,334.979,238.57z"/>
	</g>
</g>
<g>
	<g>
		<path d="M300.966,305.258l-16.638-48.605c-4.148-12.118-15.532-20.261-28.328-20.261c-12.796,0-24.179,8.143-28.328,20.262
			l-16.638,48.604c-0.883,2.582-1.332,5.251-1.332,7.935c0,13.516,10.995,24.511,24.511,24.511h5.447c4.512,0,8.17-3.658,8.17-8.17
			s-3.658-8.17-8.17-8.17h-5.447c-4.506,0-8.17-3.665-8.17-8.17c0-0.879,0.151-1.767,0.451-2.642l16.638-48.604
			c1.886-5.512,7.058-9.215,12.869-9.215c5.811,0,10.983,3.703,12.869,9.213l16.638,48.606c0.3,0.874,0.451,1.763,0.451,2.641
			c0,4.506-3.665,8.17-8.17,8.17h-5.447c-4.512,0-8.17,3.658-8.17,8.17s3.658,8.17,8.17,8.17h5.447
			c13.516,0,24.511-10.995,24.511-24.511C302.298,310.508,301.849,307.838,300.966,305.258z"/>
	</g>
</g>
<g>
	<g>
		<path d="M256,0C150.882,0,65.362,85.52,65.362,190.638v89.872c0,16.899,7.373,32.104,19.064,42.582v148.056
			c0,22.526,18.325,40.851,40.851,40.851h261.447c22.526,0,40.851-18.325,40.851-40.851V323.093
			c11.691-10.479,19.064-25.684,19.064-42.582v-89.872C446.638,85.52,361.118,0,256,0z M411.234,471.149
			c0,13.516-10.995,24.511-24.511,24.511H125.277c-13.516,0-24.511-10.995-24.511-24.511V333.38
			c6.719,2.779,14.076,4.323,21.787,4.323h27.234v81.702h-16.34v-57.191c0-4.512-3.658-8.17-8.17-8.17
			c-4.512,0-8.17,3.658-8.17,8.17v65.362c0,4.512,3.658,8.17,8.17,8.17h32.681c4.512,0,8.17-3.658,8.17-8.17v-19.064h16.34v19.064
			c0,4.512,3.658,8.17,8.17,8.17s8.17-3.658,8.17-8.17v-19.064h16.34v19.064c0,4.512,3.658,8.17,8.17,8.17s8.17-3.658,8.17-8.17
			v-19.064h16.34v19.064c0,4.512,3.658,8.17,8.17,8.17c4.512,0,8.17-3.658,8.17-8.17v-19.064h16.34v19.064
			c0,4.512,3.658,8.17,8.17,8.17s8.17-3.658,8.17-8.17v-19.064h16.34v19.064c0,4.512,3.658,8.17,8.17,8.17s8.17-3.658,8.17-8.17
			v-19.064h16.34v19.064c0,4.512,3.658,8.17,8.17,8.17h32.681c4.512,0,8.17-3.658,8.17-8.17v-65.362c0-4.512-3.658-8.17-8.17-8.17
			s-8.17,3.658-8.17,8.17v57.191h-16.34v-81.702h27.234c7.712,0,15.068-1.544,21.787-4.323V471.149z M430.298,280.511
			c0,22.526-18.325,40.851-40.851,40.851h-35.404c-4.512,0-8.17,3.658-8.17,8.17v62.638h-16.34v-19.064
			c0-4.512-3.658-8.17-8.17-8.17s-8.17,3.658-8.17,8.17v19.064h-16.34v-19.064c0-4.512-3.658-8.17-8.17-8.17s-8.17,3.658-8.17,8.17
			v19.064h-16.34v-19.064c0-4.512-3.658-8.17-8.17-8.17c-4.512,0-8.17,3.658-8.17,8.17v19.064h-16.34v-19.064
			c0-4.512-3.658-8.17-8.17-8.17s-8.17,3.658-8.17,8.17v19.064h-16.34v-19.064c0-4.512-3.658-8.17-8.17-8.17s-8.17,3.658-8.17,8.17
			v19.064h-16.34v-62.638c0-2.167-0.861-4.245-2.393-5.777c-1.532-1.533-3.61-2.393-5.777-2.393h-35.404
			c-22.526,0-40.851-18.325-40.851-40.851v-89.872C81.702,94.53,159.892,16.34,256,16.34s174.298,78.19,174.298,174.298V280.511z"/>
	</g>
</g>
<g>
</g>
<g>
</g>
<g>
</g>
<g>
</g>
<g>
</g>
<g>
</g>
<g>
</g>
<g>
</g>
<g>
</g>
<g>
</g>
<g>
</g>
<g>
</g>
<g>
</g>
<g>
</g>
<g>
</g>
</svg>
