<?xml version="1.0" encoding="UTF-8" standalone="no"?>
<svg
   xmlns:dc="http://purl.org/dc/elements/1.1/"
   xmlns:cc="http://creativecommons.org/ns#"
   xmlns:rdf="http://www.w3.org/1999/02/22-rdf-syntax-ns#"
   xmlns:svg="http://www.w3.org/2000/svg"
   xmlns="http://www.w3.org/2000/svg"
   viewBox="0 0 597.33331 101.33333"
   height="101.33333"
   width="597.33331"
   xml:space="preserve"
   id="svg2"
   version="1.1"><metadata
     id="metadata8"><rdf:RDF><cc:Work
         rdf:about=""><dc:format>image/svg+xml</dc:format><dc:type
           rdf:resource="http://purl.org/dc/dcmitype/StillImage" /></cc:Work></rdf:RDF></metadata><defs
     id="defs6" /><g
     transform="matrix(1.3333333,0,0,-1.3333333,0,101.33333)"
     id="g10"><g
       transform="scale(0.1)"
       id="g12"><path
         id="path14"
         style="fill:#dee3e3;fill-opacity:1;fill-rule:evenodd;stroke:none"
         d="m 3739.38,144.531 c -82.39,-2.301 -150.28,-9.57 -203.6,-21.832 -53.32,-12.469 -80.86,-27.6599 -82.66,-45.5076 2.31,-19.1406 33.79,-35.082 94.54,-47.8516 60.7,-12.5 136.87,-19.0312 228.47,-19.53902 60.98,0 115.94,3.21092 164.92,9.57812 48.99,6.1328 87.78,14.293 116.37,24.4922 -1.8,-0.2422 -3.47,-0.6328 -5,-1.1406 C 3991.95,28.9492 3934.18,31.3711 3879.06,50 c -55.08,18.9102 -101.68,50.43 -139.68,94.531" /><path
         id="path16"
         style="fill:#949ca1;fill-opacity:1;fill-rule:evenodd;stroke:none"
         d="m 3683.91,702.5 c 43.08,-19.379 90.04,-45.941 140.82,-79.609 15.31,8.668 31.48,16.058 48.59,22.187 -67.34,26.051 -130.51,45.192 -189.41,57.422" /><path
         id="path18"
         style="fill:#7fd945;fill-opacity:1;fill-rule:evenodd;stroke:none"
         d="m 4287.38,408.98 c 4.1,-20.429 6.14,-40.699 6.14,-60.859 52.07,-45.152 92.61,-90.312 121.71,-135.461 29.07,-44.93 28.83,-81.289 -0.78,-109.07 1.53,-0.231 2.93,7.031 4.22,21.801 1.02,15.039 -6.76,39.179 -23.36,72.339 -16.33,33.168 -50.51,77.04 -102.54,131.649 -3.08,-46.68 -15.47,-90.039 -37.15,-130.117 39.81,-67.383 50.55,-115.9417 32.15,-145.8206 -1.25,-2.2695 -2.81,-4.1797 -4.57,-5.7422 97.19,-7.3906 159.34,11.8711 186.37,57.8128 17.34,36.207 9.45,81.129 -23.71,134.687 -33.2,53.59 -86.02,109.84 -158.48,168.781" /><path
         id="path20"
         style="fill:#ffffff;fill-opacity:1;fill-rule:evenodd;stroke:none"
         d="m 4292.77,329.379 c 51.8,-54.609 85.94,-98.481 102.54,-131.649 16.6,-33.16 24.26,-57.14 22.97,-71.949 -1.29,-15.043 -2.54,-22.422 -3.83,-22.191 29.61,27.781 29.85,64.14 0.78,109.07 -29.1,45.149 -69.76,90.309 -122.11,135.461 0.28,-6.359 0.16,-12.609 -0.35,-18.742" /><path
         id="path22"
         style="fill:#ffffff;fill-opacity:1;fill-rule:evenodd;stroke:none"
         d="m 4228.09,540.23 c 0.74,-1.281 1.79,-2.531 3.04,-3.82 -1.01,1.289 -2.03,2.539 -3.04,3.82" /><path
         id="path24"
         style="fill:#ffffff;fill-opacity:1;fill-rule:evenodd;stroke:none"
         d="m 4080.39,172.461 c -6.41,9.687 -15.19,15.59 -26.44,17.617 -10.98,1.801 -21.06,5.352 -30.24,10.703 -8.91,6.41 -17.46,12.891 -25.62,19.528 -3.83,2.312 -6.64,5.632 -8.44,9.961 0.27,2.031 0.62,4.46 1.13,7.269 -2.54,2.539 -4.69,5.742 -6.48,9.57 -0.28,6.09 1.4,11.442 4.96,16.051 3.59,4.57 4.72,10.078 3.44,16.449 -2.54,4.84 -7.39,8.942 -14.54,12.27 -7.38,3.32 -9.8,0.891 -7.26,-7.27 -8.4,-3.089 -17.58,-1.289 -27.54,5.352 -10.2,6.879 -19.53,10.82 -27.93,11.879 -9.18,-0.789 -18.13,-1.68 -26.8,-2.699 -12.26,-0.512 -24.49,-0.391 -36.75,0.39 -18.09,4.059 -32.23,13.278 -42.47,27.539 -10.19,14.571 -22.69,26.289 -37.5,35.231 3.56,-7.922 6.88,-15.821 9.97,-23.75 7.65,-1.52 12.34,-6.09 14.14,-13.75 -9.18,5.078 -15.94,12.347 -20.28,21.801 -7.15,8.668 -14.57,17.457 -22.22,26.41 -12.74,17.34 -16.18,36.207 -10.32,56.636 2.82,10.192 3.83,20.153 3.05,29.84 -2.3,2.582 -4.45,6.762 -6.48,12.66 0.74,4.571 1.91,9.18 3.43,13.75 1.25,12.262 -2.93,20.551 -12.65,24.883 -4.57,-0.269 -9.93,-2.812 -16.06,-7.66 -3.28,-4.84 -7.61,-8.43 -12.97,-10.699 -0.5,2.027 0.12,4.848 1.92,8.398 -15.82,-28.55 -26.96,-59.058 -33.32,-91.48 42.85,-46.641 91.72,-93.481 146.56,-140.43 81.64,-68.871 158.55,-123.64 230.78,-164.18 -67.62,23.2 -137.38,53.321 -209.34,90.309 -61.48,32.191 -118,65.82 -169.53,101.051 1.25,-6.91 2.66,-14.059 4.22,-21.442 12.74,-50 34.92,-93.359 66.57,-130.117 38.28,-44.101 84.84,-75.6208 139.68,-94.531 55.12,-18.6289 112.89,-21.0508 173.36,-7.2695 1.8,0.5078 3.44,1.0195 5,1.5312 20.67,5.1172 40.16,12.2578 58.52,21.4375 -15.82,4.8516 -24.34,20.1602 -25.63,45.9418 -1.25,25.738 -4.57,46.019 -9.92,60.82" /><path
         id="path26"
         style="fill:#ffffff;fill-opacity:1;fill-rule:evenodd;stroke:none"
         d="m 3994.26,368.398 c -3.09,-4.339 -6.92,-6.988 -11.49,-8.007 -0.27,4.339 1.64,8.281 5.75,11.839 4.06,3.59 6.6,4.329 7.65,2.301 0.24,-1.801 -0.39,-3.832 -1.91,-6.133 m -32.54,-7.617 c -13.01,-1.801 -26.92,-2.691 -41.72,-2.691 1.05,6.871 7.81,10.461 20.31,10.699 12.23,0 21.29,-0.391 27.15,-1.129 1.02,-4.34 -0.9,-6.64 -5.74,-6.879 m -16.06,225.391 c -7.38,-0.512 -14.18,1.918 -20.27,7.269 -6.13,5.11 -12.15,8.938 -18.01,11.481 -14.8,3.316 -30,3.09 -45.54,-0.742 -1.8,8.16 2.81,15.55 13.78,22.191 10.71,6.598 19.5,9.289 26.41,8.008 l -2.69,4.961 c 5.35,-6.879 12.89,-10.551 22.57,-11.102 9.46,-0.508 16.61,-3.547 21.45,-9.136 2.81,-6.641 5,-13.403 6.52,-20.313 5.86,-7.379 4.46,-11.598 -4.22,-12.617 M 3898.2,569.34 c -7.15,-2.039 -15.31,-3.09 -24.49,-3.09 -1.29,7.66 -5.39,11.641 -12.26,11.871 -6.88,0.277 -10.83,4.109 -11.84,11.488 l 12.97,-1.129 c 8.94,-6.921 19.92,-8.441 32.93,-4.609 -1.8,-6.141 -0.9,-10.98 2.69,-14.531 m 78.83,-31.41 c 0.24,-1.801 0.12,-3.551 -0.39,-5.352 -5.59,-1.797 -11.09,-3.707 -16.44,-5.738 -3.83,4.84 -4.07,9.449 -0.75,13.781 l 3.05,-0.781 c 4.57,-1.25 9.41,-1.91 14.53,-1.91 m 316.09,-189.809 c 0,20.16 -1.91,40.43 -5.74,60.859 -1.01,4.571 -2.03,9.18 -3.04,13.75 -5.12,21.45 -12.27,41.758 -21.45,60.899 -0.51,0 -0.9,-0.149 -1.13,-0.391 3.04,-10.738 1.25,-19.648 -5.35,-26.789 -8.17,0 -16.61,2.93 -25.28,8.781 -16.29,10.239 -29.57,23.598 -39.76,40.161 -6.41,7.148 -11.14,15.429 -14.18,24.879 -4.1,8.171 -9.07,15.32 -14.92,21.449 -4.11,5.621 -9.34,13.672 -15.71,24.101 -6.36,10.469 -7.54,17.379 -3.44,20.7 -1.28,5.589 -2.57,11.21 -3.82,16.839 4.57,-0.507 8.16,-2.578 10.7,-6.129 3.32,-0.781 6.41,-1.14 9.18,-1.14 -14.26,10.199 -29.34,19.109 -45.16,26.762 -2.3,-0.274 -4.33,0 -6.13,0.738 1.8,-8.899 6.41,-15 13.79,-18.32 7.38,-3.321 12.89,-8.942 16.44,-16.829 2.31,-9.461 -0.5,-12.66 -8.39,-9.57 -8.17,3.039 -14.69,5.969 -19.53,8.789 -4.58,1.012 -8.68,2.18 -12.23,3.43 -1.29,5.121 -1.13,8.68 0.39,10.75 -3.32,6.359 -8.56,9.289 -15.7,8.781 -4.85,5.859 -11.1,8.289 -18.75,7.27 -6.37,-2.301 -13.13,-4.102 -20.28,-5.352 -5.35,4.063 -10.58,7.77 -15.7,11.051 8.67,0 17.73,1.058 27.19,3.09 -4.61,6.601 -11.25,11.09 -19.92,13.398 -7.9,-3.828 -14.54,-3.707 -19.89,0.352 -7.65,-1.758 -15.31,-2.66 -22.97,-2.66 -0.5,0.511 -3.32,2.152 -8.43,4.96 -5.08,3.09 -9.03,5 -11.84,5.75 -7.15,-0.242 -13.52,1.008 -19.14,3.821 -16.05,-1.25 -32.15,-3.821 -48.24,-7.653 -10.71,-2.808 -21.17,-5.976 -31.37,-9.57 -16.84,-5.859 -33.05,-13.129 -48.59,-21.797 -48.75,-27.812 -87.27,-65.191 -115.59,-112.152 5.12,7.152 9.34,12.391 12.62,15.711 7.15,6.129 14.29,12.109 21.44,18 3.05,6.609 7.39,11.719 13.01,15.32 3.32,-1.57 7.54,-3.32 12.62,-5.39 7.42,0.5 14.45,1.679 21.05,3.468 12.27,-2.578 22.46,-2.066 30.63,1.532 -20.16,6.64 -19.26,11.21 2.69,13.781 10.2,0 18.87,-3.082 26.02,-9.211 -4.34,-4.57 -9.18,-12 -14.53,-22.192 -5.12,-10.199 -3.95,-17.226 3.43,-21.058 7.9,1.019 16.68,1.64 26.37,1.922 6.64,-6.133 13.67,-10.352 21.06,-12.621 -2.78,13.007 -5.75,25.39 -8.79,37.109 1.29,6.91 4.22,9.57 8.79,8.051 4.61,-1.801 9.45,-3.711 14.57,-5.75 1.25,11.219 7.15,14.301 17.61,9.179 4.34,-0.5 10.43,-1.011 18.36,-1.519 7.66,-0.512 13.13,-2.031 16.45,-4.609 3.59,-5.082 1.68,-11.602 -5.74,-19.493 -7.39,-7.929 -13.13,-14.3 -17.23,-19.14 6.13,0.511 11.48,0 16.09,-1.559 4.11,0.27 8.68,1.559 13.79,3.82 -1.79,-9.179 -7.65,-13.628 -17.61,-13.359 -4.34,-11.211 -8.44,-21.91 -12.27,-32.141 -4.06,-8.91 -5.59,-18.48 -4.57,-28.71 -4.1,-10.981 -7.66,-21.961 -10.74,-32.93 3.32,-9.692 7.54,-19.77 12.65,-30.238 -2.03,-1.012 -4.1,-1.524 -6.13,-1.524 -4.84,8.16 -11.6,12.5 -20.27,13.012 -3.83,1.012 -8.71,1.398 -14.57,1.172 -5.63,-0.282 -8.56,-3.321 -8.79,-9.184 -6.64,-2.808 -11.88,-3.988 -15.7,-3.476 -3.56,0.277 -6.88,-3.793 -9.97,-12.223 -4.06,-10.43 -3.67,-21.289 1.18,-32.5 6.87,-10.75 16.44,-15.469 28.71,-14.18 3.55,2.531 6.25,6.871 8.01,13 2.07,5.86 4.49,9.692 7.3,11.492 5.59,1.52 8.67,-1.14 9.18,-8.05 0.74,-6.871 2.42,-12.231 4.96,-16.051 4.84,-3.602 9.45,-4.219 13.79,-1.918 4.34,2.539 8.94,3.047 13.79,1.527 4.33,-8.949 10.31,-17.109 17.97,-24.5 6.4,0 10.86,2.031 13.4,6.141 5.85,0.738 10.19,1.012 13,0.738 2.27,0.274 4.69,0.512 7.27,0.781 -4.1,15.551 -0.12,24.102 11.87,25.621 11.72,1.801 22.58,3.321 32.54,4.61 7.89,6.371 16.96,10.082 27.15,11.101 10.24,-3.562 20.43,-6.492 30.63,-8.793 10.7,4.063 21.79,5.231 33.28,3.442 5.62,-3.051 9.96,-5.629 13.01,-7.66 2.81,-2.301 8.04,-2.809 15.7,-1.52 11.99,3.32 23.08,5.461 33.32,6.481 10.43,1.058 17.58,-5.082 21.41,-18.36 7.42,-31.91 3.47,-62.261 -11.84,-91.051 -6.13,-14.3 -11.76,-28.71 -16.88,-43.281 -4.57,-15.32 -13.39,-27.539 -26.4,-36.758 6.13,-5.589 5,-11.601 -3.44,-17.972 -8.44,-6.641 -14.69,-12.379 -18.75,-17.231 -8.16,-14.7575 -9.69,-28.2771 -4.61,-40.5388 56.17,30.6208 99.02,73.1988 128.59,127.8128 21.45,40.308 33.83,83.668 37.15,130.117 0.24,6.133 0.35,12.383 0.35,18.742" /><path
         id="path28"
         style="fill:#005494;fill-opacity:1;fill-rule:evenodd;stroke:none"
         d="m 4132.03,111.988 c 4.06,4.852 10.31,10.59 18.75,17.231 8.17,6.371 9.3,12.383 3.44,17.972 13.01,9.219 21.83,21.438 26.4,36.758 4.85,14.571 10.47,29.102 16.84,43.629 15.31,28.551 19.3,58.793 11.88,90.703 -3.83,13.278 -10.98,19.418 -21.45,18.36 -10.43,-1.02 -21.56,-3.051 -33.28,-6.09 -7.66,-1.289 -12.89,-0.903 -15.7,1.129 -3.05,2.031 -7.39,4.609 -13.01,7.66 -11.76,1.789 -22.85,0.781 -33.28,-3.051 -10.2,2.031 -20.39,4.84 -30.63,8.402 -10.47,-0.742 -19.53,-4.461 -27.19,-11.101 -9.92,-1.289 -20.89,-2.809 -32.89,-4.61 -11.75,-1.519 -15.7,-10.07 -11.87,-25.621 -2.58,-0.269 -4.84,-0.507 -6.88,-0.781 -2.81,0.274 -7.14,0 -13,-0.738 -2.54,-4.11 -7.15,-6.141 -13.79,-6.141 -7.39,7.391 -13.4,15.551 -17.97,24.5 -4.61,1.52 -9.18,1.012 -13.79,-1.527 -4.34,-2.301 -8.79,-1.684 -13.4,1.918 -2.54,3.82 -4.22,9.18 -4.96,16.051 -0.78,6.91 -3.98,9.57 -9.57,8.05 -2.58,-1.8 -4.88,-5.632 -6.91,-11.492 -2.04,-6.129 -4.85,-10.469 -8.4,-13 -12.27,-1.289 -21.84,3.43 -28.71,14.18 -4.61,11.48 -4.85,22.301 -0.78,32.5 2.81,8.43 6.13,12.5 9.96,12.223 3.55,-0.512 8.78,0.668 15.7,3.476 0,5.863 2.93,8.902 8.79,9.184 5.86,0.508 10.7,0.226 14.53,-0.782 8.44,-0.781 15.08,-5.242 19.92,-13.402 2.31,0.274 4.45,0.781 6.52,1.524 -5.11,10.468 -9.45,20.546 -13.04,30.238 3.32,10.969 6.91,21.949 10.74,32.93 -0.78,10.23 0.9,19.8 4.96,28.71 3.59,10.231 7.66,20.93 12.27,32.141 9.96,-0.269 15.82,4.18 17.61,13.359 -5.11,-2.261 -9.72,-3.55 -13.79,-3.82 -4.6,1.559 -9.96,2.07 -16.09,1.559 4.1,4.84 9.84,11.211 17.23,19.14 7.42,7.891 9.18,14.411 5.35,19.493 -3.32,2.578 -8.79,4.097 -16.45,4.609 -7.65,0.508 -13.67,1.019 -18,1.519 -10.43,5.122 -16.45,2.04 -17.97,-9.179 -5.12,2.039 -9.96,3.949 -14.57,5.75 -4.57,1.519 -7.39,-1.141 -8.4,-8.051 3.05,-11.719 5.86,-24.102 8.4,-37.109 -7.15,2.269 -14.14,6.488 -21.06,12.621 -9.41,-0.282 -18.2,-0.903 -26.37,-1.922 -7.38,3.832 -8.39,10.859 -3.04,21.058 5.35,10.192 10.04,17.622 14.14,22.192 -6.88,6.129 -15.43,9.211 -25.63,9.211 -22.22,-2.571 -23.08,-7.141 -2.69,-13.781 -8.17,-3.598 -18.48,-4.11 -31.02,-1.532 -6.6,-1.789 -13.51,-2.968 -20.66,-3.468 -5.35,2.07 -9.57,3.82 -12.62,5.39 -5.86,-3.32 -10.23,-8.441 -13.01,-15.32 -7.42,-5.891 -14.68,-11.75 -21.83,-17.61 -3.28,-3.601 -7.38,-8.949 -12.23,-16.101 -2.3,-3.551 -4.18,-6.867 -5.74,-9.918 -1.76,-3.59 -2.54,-6.52 -2.27,-8.789 5.36,2.269 9.81,5.859 13.36,10.699 5.86,5.078 11.1,7.66 15.67,7.66 9.72,-4.332 13.9,-12.621 12.65,-24.883 -1.29,-4.339 -2.42,-8.91 -3.43,-13.75 2.03,-5.628 4.33,-9.847 6.87,-12.66 0.51,-9.687 -0.62,-19.648 -3.44,-29.84 -5.86,-20.16 -2.3,-39.058 10.71,-56.636 7.42,-8.672 14.68,-17.461 21.83,-26.41 4.34,-9.454 11.1,-16.563 20.28,-21.442 -1.53,7.649 -6.14,12.141 -13.79,13.391 -3.32,8.168 -6.61,16.097 -9.93,23.75 14.81,-8.942 27.15,-20.539 37.11,-34.84 10.24,-14.531 24.38,-23.711 42.47,-27.539 12.26,-1.051 24.49,-1.172 36.75,-0.391 8.67,0.739 17.62,1.641 26.8,2.66 8.4,-1.25 17.73,-5.242 27.93,-11.839 10.23,-6.911 19.41,-8.711 27.54,-5.391 -2.27,7.93 0.15,10.238 7.26,6.918 7.15,-3.328 12,-7.27 14.54,-11.879 1.56,-6.371 0.5,-11.879 -3.05,-16.449 -3.83,-4.602 -5.63,-9.961 -5.35,-16.09 2.03,-3.832 4.33,-7.109 6.87,-9.922 -0.74,-2.809 -1.25,-5.117 -1.52,-6.879 2.03,-4.332 4.84,-7.769 8.44,-10.351 8.16,-6.637 16.71,-13.118 25.62,-19.528 9.18,-5.351 19.41,-8.902 30.63,-10.703 11.25,-1.797 20.04,-7.539 26.4,-17.226 5.12,-14.801 8.32,-35.231 9.57,-61.211 1.29,-25.7816 9.81,-41.0902 25.63,-45.9418 4.33,-0.5 9.45,0.1211 15.31,1.9219 -1.52,1.0078 -2.81,2.3008 -3.83,3.8281 -5.12,12.2617 -3.55,25.7813 4.61,40.5388" /><path
         id="path30"
         style="fill:#005494;fill-opacity:1;fill-rule:evenodd;stroke:none"
         d="m 4139.3,612.969 c 1.25,-5.348 2.42,-10.86 3.43,-16.449 -3.82,-3.321 -2.53,-10.348 3.83,-21.051 6.37,-10.469 11.6,-18.399 15.71,-23.75 5.85,-6.367 10.82,-13.52 14.92,-21.449 3.04,-9.45 7.77,-17.731 14.18,-24.879 10.19,-16.801 23.47,-30.192 39.76,-40.161 8.67,-6.128 17.11,-9.179 25.28,-9.179 6.6,7.39 8.39,16.449 5.35,27.187 0.23,0.242 0.62,0.391 1.13,0.391 2.58,0.512 4.22,-0.899 5,-4.219 v 5.36 c 3.56,6.128 0.35,14.14 -9.57,24.101 -9.96,9.918 -19.02,19.098 -27.19,27.539 -1.25,1.289 -2.3,2.539 -3.04,3.82 -2.82,3.559 -3.56,6.532 -2.31,8.79 -11.95,13.558 -25.35,26.449 -40.16,38.679 -6.64,6.641 -13.67,12.379 -21.05,17.223 -2.07,0.777 -3.83,1.168 -5.39,1.168 -2.77,-0.27 -5.86,0.121 -9.18,1.14 -2.54,3.551 -6.13,5.469 -10.7,5.739" /><path
         id="path32"
         style="fill:#005494;fill-opacity:1;fill-rule:evenodd;stroke:none"
         d="m 3943.36,619.102 c -4.84,5.589 -11.99,8.628 -21.45,9.136 -9.68,0.282 -17.22,3.992 -22.57,11.102 l 2.3,-4.961 c -6.64,1.281 -15.43,-1.41 -26.41,-8.008 -10.74,-6.641 -15.19,-14.031 -13.39,-22.191 15.54,3.832 30.74,4.058 45.54,0.742 5.86,-2.543 11.88,-6.481 18.01,-11.871 6.09,-5.082 12.89,-7.391 20.27,-6.879 8.68,1.019 10.08,5.238 4.22,12.617 -1.52,6.91 -3.71,13.672 -6.52,20.313" /><path
         id="path34"
         style="fill:#005494;fill-opacity:1;fill-rule:evenodd;stroke:none"
         d="m 3972.07,658.48 c 2.81,-0.75 6.76,-2.66 11.84,-5.75 5.11,-3.039 7.93,-4.718 8.43,-4.96 7.39,0 15.04,0.902 22.97,2.66 5.35,-4.34 11.99,-4.571 19.89,-0.739 8.67,-2.031 15.19,-6.41 19.53,-13.011 -9.18,-2.301 -18.13,-3.321 -26.8,-3.09 5.12,-3.281 10.19,-6.988 15.31,-11.051 7.38,1.012 14.3,2.66 20.67,4.961 7.65,1.02 13.9,-1.289 18.75,-6.879 6.91,0.238 12.11,-2.691 15.7,-8.781 -1.52,-2.07 -1.68,-5.75 -0.39,-11.141 3.32,-1.25 7.38,-2.258 12.23,-3.039 4.84,-3.051 11.21,-6.019 19.14,-8.789 8.16,-3.09 11.09,0.109 8.78,9.57 -3.55,7.649 -9.06,13.118 -16.44,16.438 -7.66,3.32 -12.23,9.57 -13.79,18.711 1.8,-0.738 3.83,-1.129 6.13,-1.129 1.8,0.269 3.44,0.269 4.96,0 -9.92,7.891 -21.79,13.008 -35.54,15.309 -13.01,5.859 -26.68,10.468 -40.98,13.789 -23.98,5.589 -48.2,8.671 -72.69,9.179 -2.82,0.242 -6.88,0.242 -12.23,0 -5.35,-0.269 -7.03,-3.078 -5,-8.437 5.9,-3.039 12.38,-4.332 19.53,-3.821" /><path
         id="path36"
         style="fill:#005494;fill-opacity:1;fill-rule:evenodd;stroke:none"
         d="m 3920,358.09 c 15.08,0 29.1,0.89 42.11,2.691 4.84,0.239 6.76,2.539 5.74,6.879 -5.86,0.738 -15.04,1.129 -27.54,1.129 -12.5,-0.238 -19.26,-3.828 -20.31,-10.699" /><path
         id="path38"
         style="fill:#005494;fill-opacity:1;fill-rule:evenodd;stroke:none"
         d="m 3982.77,360.391 c 4.85,1.019 8.79,3.668 11.84,8.007 1.56,2.071 2.19,4.102 1.91,6.133 -1.01,2.028 -3.55,1.289 -7.65,-2.301 -4.07,-3.558 -6.1,-7.5 -6.1,-11.839" /><path
         id="path40"
         style="fill:#005494;fill-opacity:1;fill-rule:evenodd;stroke:none"
         d="m 3895.9,583.871 c -13.01,-3.832 -23.99,-2.312 -32.93,4.609 l -13.01,1.129 c 1.02,-7.379 5,-11.211 11.88,-11.488 6.87,-0.23 10.97,-4.211 12.22,-11.871 9.22,0 17.39,1.051 24.53,3.09 -3.82,3.551 -4.72,8.39 -2.69,14.531" /><path
         id="path42"
         style="fill:#005494;fill-opacity:1;fill-rule:evenodd;stroke:none"
         d="m 3960.2,526.84 c 5.35,2.031 10.85,3.941 16.44,5.738 0.51,1.801 0.63,3.551 0.39,5.352 -5.12,0 -9.96,0.66 -14.53,1.91 l -3.05,0.781 c -3.32,-4.332 -3.08,-8.941 0.75,-13.781" /><path
         id="path44"
         style="fill:#7fd945;fill-opacity:1;fill-rule:evenodd;stroke:none"
         d="m 3439.73,668.051 c -3.05,-33.672 11.75,-75.512 44.37,-125.512 32.42,-50.269 65.74,-95.269 99.92,-135.117 34.42,-39.531 53.05,-60.434 55.86,-62.731 -89.29,78.039 -147.46,140.969 -174.53,188.668 -27.03,47.461 -38.75,81.911 -35.19,103.321 3.59,21.41 6.79,31.871 9.57,31.371 M 4047.46,104.73 c -72.46,40.54 -149.37,95.309 -230.78,164.18 -54.84,46.949 -103.83,93.789 -146.95,140.43 -63.56,69.41 -109.81,131.91 -138.91,187.539 -29.1,55.621 -35.47,96.441 -19.14,122.461 0.23,0 0.51,0.148 0.74,0.39 -55.58,-5.628 -92.34,-24.609 -110.19,-57.031 -20.16,-43.359 -5.63,-98.09 43.63,-164.179 48.98,-66.059 123.24,-133.399 222.73,-202.071 51.53,-35.469 108.05,-69.219 169.53,-101.41 71.96,-36.988 141.72,-67.109 209.34,-90.309" /><path
         id="path46"
         style="fill:#ffffff;fill-opacity:1;fill-rule:evenodd;stroke:none"
         d="m 3439.73,668.441 c -2.54,0.27 -5.75,-10.203 -9.57,-31.371 -3.56,-21.449 8.16,-56.019 35.19,-103.711 27.07,-47.461 85.24,-110.347 174.53,-188.668 -2.81,2.297 -21.33,23.36 -55.5,63.118 -34.42,39.57 -67.86,84.461 -100.28,134.73 -32.38,50.27 -47.15,92.231 -44.37,125.902" /><path
         id="path48"
         style="fill:#003366;fill-opacity:1;fill-rule:nonzero;stroke:none"
         d="m 814.41,759.922 h 87.66 c 4.059,0 7.379,-0.082 10,-0.152 2.7,0 6.602,-0.239 11.719,-0.629 5.191,-0.43 9.57,-1.051 13.121,-1.871 3.641,-0.86 7.891,-2.11 12.82,-3.75 4.879,-1.68 9.059,-3.68 12.5,-5.942 3.508,-2.187 7.18,-5.156 10.93,-8.906 3.828,-3.672 6.918,-7.731 9.219,-12.192 2.391,-4.492 4.301,-9.921 5.781,-16.25 1.449,-6.359 2.192,-13.351 2.192,-20.929 0,-10.942 -1.25,-20.781 -3.75,-29.531 -2.5,-8.68 -5.743,-15.942 -9.692,-21.879 -3.859,-5.86 -8.898,-10.903 -15.148,-15.161 -6.25,-4.179 -12.461,-7.421 -18.602,-9.679 -6.051,-2.313 -13.238,-4.141 -21.558,-5.473 -8.243,-1.25 -15.622,-2.109 -22.192,-2.5 -6.48,-0.43 -14.019,-0.629 -22.648,-0.629 -8.442,0 -18.672,0.473 -30.633,1.41 V 494.449 H 814.41 Z m 31.719,-126.094 c 11.961,-0.937 23.32,-1.406 34.07,-1.406 6.012,0 11.09,0.039 15.153,0.156 4.136,0.082 9.218,0.512 15.16,1.25 6.008,0.703 11.008,1.723 15,2.973 4.058,1.32 8.316,3.32 12.808,5.929 4.45,2.7 8.008,5.821 10.629,9.379 2.692,3.512 4.922,8.012 6.711,13.442 1.762,5.39 2.66,11.597 2.66,18.59 0,7.187 -0.941,13.519 -2.808,19.058 -1.883,5.629 -4.614,10.082 -8.133,13.442 -3.551,3.32 -7.301,6.089 -11.25,8.281 -3.981,2.187 -8.707,3.75 -14.219,4.687 -5.539,0.942 -10.39,1.563 -14.531,1.871 -4.18,0.321 -9.141,0.469 -14.84,0.469 h -46.41 z m 259.141,48.75 c 13.75,0 25.35,-1.637 34.85,-4.848 9.57,-3.121 16.91,-7.769 22.03,-13.902 5.19,-6.058 8.9,-12.808 11.09,-20.308 2.27,-7.43 3.44,-16.02 3.44,-25.79 V 494.449 h -21.72 l -7.03,16.879 c -15.12,-13.75 -32.46,-20.629 -52.03,-20.629 -17.42,0 -32.15,5.242 -44.22,15.781 -12.11,10.508 -18.13,22.821 -18.13,36.879 0,7.5 1.33,14.219 4.07,20.161 2.81,6.011 6.76,11.011 11.87,15 5.2,3.941 11.1,7.339 17.66,10.152 6.64,2.808 14.37,4.918 23.12,6.406 8.75,1.563 17.54,2.652 26.41,3.281 8.83,0.621 18.59,0.942 29.22,0.942 v 14.527 c 0,4.262 -0.16,7.973 -0.47,11.094 -0.31,3.129 -1.37,6.797 -3.13,11.098 -1.79,4.371 -4.18,7.96 -7.18,10.781 -2.93,2.808 -7.42,5.23 -13.44,7.34 -5.94,2.07 -13.05,3.129 -21.25,3.129 -12.73,0 -29.18,-2.821 -49.38,-8.442 l -5.78,22.344 c 20.51,7.578 40.51,11.406 60,11.406 z m 40.63,-106.406 h -11.41 c -7.11,0 -13.28,-0.152 -18.59,-0.473 -5.24,-0.23 -11.37,-0.929 -18.44,-2.179 -6.99,-1.18 -12.73,-2.821 -17.19,-5 -4.49,-2.11 -8.36,-5.161 -11.56,-9.219 -3.12,-3.992 -4.69,-8.75 -4.69,-14.379 0,-7.813 3.95,-14.801 11.88,-20.942 7.89,-6.171 17.34,-9.21 28.28,-9.21 16.02,0 29.92,6.281 41.72,18.902 z" /><path
         id="path50"
         style="fill:#003366;fill-opacity:1;fill-rule:nonzero;stroke:none"
         d="m 1324.53,682.578 c 7.58,0 15,-0.937 22.19,-2.808 7.19,-1.801 14.41,-4.969 21.72,-9.54 7.26,-4.492 13.63,-10.23 19.06,-17.179 5.39,-6.879 9.84,-15.86 13.28,-26.879 3.44,-11.051 5.16,-23.512 5.16,-37.344 0,-30.308 -8.09,-54.297 -24.22,-71.879 -16.17,-17.5 -37.03,-26.25 -62.66,-26.25 -14.68,0 -29.61,3.281 -44.68,9.852 V 395.23 h -30.63 v 283.75 h 21.41 l 5,-11.71 c 17.38,10.191 35.5,15.308 54.37,15.308 z m -10.47,-25.308 c -13.55,0 -26.79,-3.442 -39.68,-10.321 V 523.828 c 13.32,-6.058 26.71,-9.058 40.15,-9.058 5.7,0 11.25,0.621 16.56,1.871 5.39,1.25 10.86,3.519 16.41,6.879 5.62,3.32 10.47,7.421 14.53,12.339 4.14,5 7.54,11.602 10.16,19.84 2.58,8.211 3.9,17.5 3.9,27.821 0,11.75 -1.4,22.101 -4.21,31.089 -2.74,8.942 -6.22,16.012 -10.47,21.25 -4.18,5.192 -9.14,9.45 -14.85,12.813 -5.74,3.437 -11.25,5.707 -16.56,6.879 -5.23,1.129 -10.55,1.719 -15.94,1.719 z" /><path
         id="path52"
         style="fill:#003366;fill-opacity:1;fill-rule:nonzero;stroke:none"
         d="m 1542.89,682.578 c 9.06,0 17.11,-1.098 24.22,-3.277 7.19,-2.192 13.12,-4.961 17.81,-8.281 4.77,-3.36 8.91,-7.739 12.35,-13.129 3.43,-5.43 6.01,-10.7 7.81,-15.782 1.76,-5 3.16,-11.058 4.22,-18.129 1.01,-7.101 1.64,-13.281 1.87,-18.589 0.2,-5.231 0.31,-11.371 0.31,-18.442 v -14.527 h -126.87 c 0,-6.801 1.48,-13.512 4.53,-20.152 3.13,-6.68 7.42,-12.782 12.97,-18.29 5.51,-5.539 12.81,-10.07 21.87,-13.589 9.07,-3.442 19.07,-5.161 30,-5.161 12.9,0 26.92,2.231 42.04,6.719 l 5.46,-20.929 c -20.11,-6.879 -39.8,-10.321 -59.06,-10.321 -13.55,0 -25.62,1.801 -36.25,5.321 -10.55,3.628 -19.02,8.359 -25.47,14.21 -6.36,5.821 -11.64,12.739 -15.78,20.79 -4.06,8.121 -6.87,16.171 -8.44,24.21 -1.56,8.008 -2.34,16.489 -2.34,25.469 0,13.832 1.64,26.492 5,37.973 3.44,11.449 8.01,21.098 13.75,28.906 5.7,7.813 12.38,14.371 20,19.692 7.7,5.39 15.78,9.289 24.22,11.71 8.44,2.391 17.03,3.598 25.78,3.598 z m -6.41,-26.558 c -11.05,0 -20.54,-3.051 -28.43,-9.071 -7.82,-6.051 -13.56,-13.551 -17.19,-22.5 -3.67,-8.98 -5.47,-18.59 -5.47,-28.898 h 96.41 c 0,40.308 -15.12,60.469 -45.32,60.469 z" /><path
         id="path54"
         style="fill:#003366;fill-opacity:1;fill-rule:nonzero;stroke:none"
         d="m 1697.15,665.23 c 15.51,11.571 32.69,17.348 51.56,17.348 12.89,0 24.69,-2.418 35.31,-7.187 l -9.37,-24.532 c -9.69,3.75 -19.81,5.621 -30.31,5.621 -15.55,0 -30.16,-4.332 -43.91,-12.96 V 494.449 H 1669.8 V 678.98 h 21.57 z" /><path
         id="path56"
         style="fill:#003366;fill-opacity:1;fill-rule:nonzero;stroke:none"
         d="m 1944.57,759.922 h 44.84 l 85.16,-161.094 86.56,161.094 h 42.03 V 494.449 h -31.87 v 219.852 l -81.56,-143.75 h -31.72 l -81.72,143.75 V 494.449 h -31.72 z" /><path
         id="path58"
         style="fill:#003366;fill-opacity:1;fill-rule:nonzero;stroke:none"
         d="m 2337.07,682.578 c 13.75,0 25.35,-1.637 34.84,-4.848 9.57,-3.121 16.92,-7.769 22.04,-13.902 5.19,-6.058 8.9,-12.808 11.09,-20.308 2.26,-7.43 3.44,-16.02 3.44,-25.79 V 494.449 h -21.72 l -7.03,16.879 c -15.12,-13.75 -32.46,-20.629 -52.03,-20.629 -17.43,0 -32.15,5.242 -44.22,15.781 -12.11,10.508 -18.13,22.821 -18.13,36.879 0,7.5 1.33,14.219 4.06,20.161 2.82,6.011 6.76,11.011 11.88,15 5.19,3.941 11.09,7.339 17.66,10.152 6.64,2.808 14.37,4.918 23.12,6.406 8.75,1.563 17.54,2.652 26.41,3.281 8.82,0.621 18.59,0.942 29.22,0.942 v 14.527 c 0,4.262 -0.16,7.973 -0.47,11.094 -0.32,3.129 -1.37,6.797 -3.13,11.098 -1.8,4.371 -4.18,7.96 -7.19,10.781 -2.93,2.808 -7.42,5.23 -13.43,7.34 -5.94,2.07 -13.05,3.129 -21.25,3.129 -12.74,0 -29.18,-2.821 -49.38,-8.442 l -5.78,22.344 c 20.51,7.578 40.51,11.406 60,11.406 z m 40.63,-106.406 h -11.41 c -7.11,0 -13.28,-0.152 -18.59,-0.473 -5.24,-0.23 -11.37,-0.929 -18.44,-2.179 -6.99,-1.18 -12.74,-2.821 -17.19,-5 -4.49,-2.11 -8.36,-5.161 -11.56,-9.219 -3.13,-3.992 -4.69,-8.75 -4.69,-14.379 0,-7.813 3.95,-14.801 11.88,-20.942 7.89,-6.171 17.34,-9.21 28.28,-9.21 16.01,0 29.92,6.281 41.72,18.902 z" /><path
         id="path60"
         style="fill:#003366;fill-opacity:1;fill-rule:nonzero;stroke:none"
         d="m 2552.27,682.578 c 2.57,0 5.03,-0.078 7.34,-0.156 2.27,0 4.53,-0.152 6.72,-0.473 2.19,-0.23 4.06,-0.39 5.62,-0.469 1.57,-0.109 3.32,-0.39 5.32,-0.781 2.07,-0.308 3.59,-0.578 4.53,-0.777 0.93,-0.231 2.5,-0.621 4.68,-1.25 2.19,-0.551 3.48,-0.863 3.91,-0.942 0.51,-0.109 1.95,-0.539 4.38,-1.25 2.5,-0.742 3.94,-1.21 4.37,-1.402 l -7.97,-23.277 c -16.68,4.57 -31.37,6.871 -44.06,6.871 -7.31,0 -13.83,-0.781 -19.53,-2.344 -5.63,-1.488 -10,-3.238 -13.13,-5.308 -3.04,-2.11 -5.54,-4.54 -7.5,-7.348 -1.87,-2.813 -3.12,-5.313 -3.75,-7.5 -0.54,-2.113 -0.78,-4.141 -0.78,-6.094 0,-5.117 2.66,-9.648 7.97,-13.598 5.31,-3.98 11.91,-7.179 19.84,-9.679 7.89,-2.5 16.45,-5.473 25.63,-8.91 9.26,-3.442 17.85,-7.11 25.78,-10.942 7.89,-3.75 14.45,-9.058 19.69,-15.929 5.31,-6.801 7.97,-14.692 7.97,-23.75 0,-5.122 -0.71,-10.079 -2.03,-14.848 -1.25,-4.801 -3.72,-9.801 -7.35,-15 -3.67,-5.231 -8.4,-9.762 -14.22,-13.594 -5.74,-3.75 -13.51,-6.879 -23.28,-9.379 -9.69,-2.5 -20.86,-3.75 -33.44,-3.75 -19.06,0 -40,4.692 -62.81,14.071 l 8.6,23.121 c 12.89,-4.692 23.43,-8.09 31.56,-10.161 8.12,-1.992 16.13,-2.96 24.06,-2.96 30.31,0 45.47,9.679 45.47,29.058 0,4.141 -1.52,7.852 -4.53,11.094 -2.93,3.316 -6.88,5.976 -11.88,7.969 -5,2.07 -10.62,4.218 -16.87,6.41 -6.25,2.179 -12.66,4.219 -19.22,6.09 -6.56,1.879 -13.05,4.3 -19.38,7.339 -6.25,3.008 -11.87,6.329 -16.87,10 -4.92,3.75 -8.87,8.52 -11.88,14.379 -3.04,5.821 -4.53,12.422 -4.53,19.84 0,4.461 0.71,9.071 2.19,13.75 1.45,4.692 4.1,9.571 7.97,14.692 3.94,5.199 8.83,9.73 14.69,13.589 5.82,3.95 13.63,7.192 23.43,9.692 9.77,2.578 20.86,3.906 33.29,3.906 z" /><path
         id="path62"
         style="fill:#003366;fill-opacity:1;fill-rule:nonzero;stroke:none"
         d="m 2763.52,497.578 c -18.05,-4.566 -32.11,-6.879 -42.19,-6.879 -10.12,0 -18.67,1.641 -25.63,4.852 -6.99,3.199 -12.3,7.808 -15.93,13.75 -3.56,6.008 -6.1,12.5 -7.66,19.371 -1.56,6.949 -2.34,14.918 -2.34,23.906 v 102.344 h -24.85 v 24.058 h 24.85 v 52.969 h 30.62 V 678.98 h 56.25 v -24.058 h -56.25 V 552.891 c 0,-25.551 10.08,-38.282 30.31,-38.282 3.52,0 13.05,1.289 28.6,3.911 z" /><path
         id="path64"
         style="fill:#003366;fill-opacity:1;fill-rule:nonzero;stroke:none"
         d="m 2889.8,682.578 c 9.07,0 17.11,-1.098 24.22,-3.277 7.19,-2.192 13.13,-4.961 17.82,-8.281 4.76,-3.36 8.9,-7.739 12.34,-13.129 3.44,-5.43 6.02,-10.7 7.81,-15.782 1.76,-5 3.17,-11.058 4.22,-18.129 1.02,-7.101 1.64,-13.281 1.88,-18.589 0.19,-5.231 0.31,-11.371 0.31,-18.442 v -14.527 h -126.88 c 0,-6.801 1.49,-13.512 4.53,-20.152 3.13,-6.68 7.43,-12.782 12.97,-18.29 5.51,-5.539 12.82,-10.07 21.88,-13.589 9.06,-3.442 19.06,-5.161 30,-5.161 12.89,0 26.91,2.231 42.03,6.719 l 5.47,-20.929 c -20.12,-6.879 -39.81,-10.321 -59.06,-10.321 -13.56,0 -25.63,1.801 -36.25,5.321 -10.55,3.628 -19.03,8.359 -25.47,14.21 -6.37,5.821 -11.64,12.739 -15.78,20.79 -4.07,8.121 -6.88,16.171 -8.44,24.21 -1.56,8.008 -2.35,16.489 -2.35,25.469 0,13.832 1.65,26.492 5,37.973 3.44,11.449 8.01,21.098 13.75,28.906 5.71,7.813 12.39,14.371 20,19.692 7.7,5.39 15.79,9.289 24.22,11.71 8.44,2.391 17.03,3.598 25.78,3.598 z m -6.4,-26.558 c -11.06,0 -20.55,-3.051 -28.44,-9.071 -7.81,-6.051 -13.55,-13.551 -17.19,-22.5 -3.67,-8.98 -5.47,-18.59 -5.47,-28.898 h 96.41 c 0,40.308 -15.12,60.469 -45.31,60.469 z" /><path
         id="path66"
         style="fill:#003366;fill-opacity:1;fill-rule:nonzero;stroke:none"
         d="m 3044.06,665.23 c 15.51,11.571 32.7,17.348 51.56,17.348 12.9,0 24.69,-2.418 35.32,-7.187 l -9.38,-24.532 c -9.68,3.75 -19.8,5.621 -30.31,5.621 -15.55,0 -30.16,-4.332 -43.91,-12.96 V 494.449 h -30.62 V 678.98 h 21.56 z" /><path
         id="path68"
         style="fill:#003366;fill-opacity:1;fill-rule:nonzero;stroke:none"
         d="m 3242.93,682.578 c 2.58,0 5.04,-0.078 7.34,-0.156 2.27,0 4.53,-0.152 6.72,-0.473 2.19,-0.23 4.06,-0.39 5.63,-0.469 1.56,-0.109 3.32,-0.39 5.31,-0.781 2.07,-0.308 3.59,-0.578 4.53,-0.777 0.94,-0.231 2.5,-0.621 4.69,-1.25 2.19,-0.551 3.47,-0.863 3.9,-0.942 0.51,-0.109 1.96,-0.539 4.38,-1.25 2.5,-0.742 3.95,-1.21 4.37,-1.402 l -7.96,-23.277 c -16.68,4.57 -31.37,6.871 -44.07,6.871 -7.3,0 -13.82,-0.781 -19.53,-2.344 -5.62,-1.488 -10,-3.238 -13.12,-5.308 -3.05,-2.11 -5.55,-4.54 -7.5,-7.348 -1.88,-2.813 -3.13,-5.313 -3.75,-7.5 -0.55,-2.113 -0.78,-4.141 -0.78,-6.094 0,-5.117 2.65,-9.648 7.96,-13.598 5.32,-3.98 11.92,-7.179 19.85,-9.679 7.89,-2.5 16.44,-5.473 25.62,-8.91 9.26,-3.442 17.86,-7.11 25.78,-10.942 7.9,-3.75 14.46,-9.058 19.69,-15.929 5.31,-6.801 7.97,-14.692 7.97,-23.75 0,-5.122 -0.7,-10.079 -2.03,-14.848 -1.25,-4.801 -3.71,-9.801 -7.34,-15 -3.68,-5.231 -8.4,-9.762 -14.22,-13.594 -5.75,-3.75 -13.52,-6.879 -23.28,-9.379 -9.69,-2.5 -20.86,-3.75 -33.44,-3.75 -19.06,0 -40,4.692 -62.81,14.071 l 8.59,23.121 c 12.89,-4.692 23.44,-8.09 31.56,-10.161 8.13,-1.992 16.13,-2.96 24.06,-2.96 30.32,0 45.47,9.679 45.47,29.058 0,4.141 -1.52,7.852 -4.53,11.094 -2.93,3.316 -6.87,5.976 -11.87,7.969 -5,2.07 -10.63,4.218 -16.88,6.41 -6.25,2.179 -12.65,4.219 -19.22,6.09 -6.56,1.879 -13.04,4.3 -19.37,7.339 -6.25,3.008 -11.88,6.329 -16.88,10 -4.92,3.75 -8.86,8.52 -11.87,14.379 -3.05,5.821 -4.53,12.422 -4.53,19.84 0,4.461 0.7,9.071 2.18,13.75 1.45,4.692 4.11,9.571 7.97,14.692 3.95,5.199 8.83,9.73 14.69,13.589 5.82,3.95 13.63,7.192 23.44,9.692 9.76,2.578 20.86,3.906 33.28,3.906 z" /><path
         id="path70"
         style="fill:#003366;fill-opacity:1;fill-rule:nonzero;stroke:none"
         d="m 77.0703,309.609 c 14.0586,0 28.0077,-2.769 41.8787,-8.281 L 113.32,286.02 c -14.0583,4.878 -26.3317,7.339 -36.7184,7.339 -8.75,0 -16.8321,-1.718 -24.2227,-5.16 -7.418,-3.429 -13.5508,-8.039 -18.4297,-13.75 -4.9297,-5.738 -8.7187,-12.34 -11.4101,-19.84 -2.7383,-7.418 -4.0586,-15.121 -4.0586,-23.129 0,-8.429 1.4414,-16.48 4.3711,-24.058 2.8867,-7.5 6.9492,-14.141 12.1875,-19.844 5.3125,-5.629 11.8711,-10.117 19.6914,-13.437 7.8906,-3.36 16.4804,-5 25.7812,-5 11.1289,0 22.7263,2.187 34.8403,6.558 l 5.628,-13.59 c -15.121,-6.558 -30.1206,-9.839 -44.9995,-9.839 -9.3008,0 -17.9688,1.32 -26.1016,3.902 -8.1172,2.699 -15.2305,6.449 -21.25,11.25 -6.0508,4.879 -11.25,10.629 -15.6172,17.187 -4.30076,6.563 -7.49998,13.789 -9.69139,21.719 -2.1914,7.891 -3.2812475,16.25 -3.2812475,25 0,14.762 3.0507775,28.051 9.2226575,39.844 6.12888,11.758 15.07808,21.098 26.86718,27.969 11.8828,6.949 25.5117,10.468 40.9414,10.468 z M 217.891,261.641 h 17.808 V 154.449 h -12.5 l -3.75,9.071 c -13.668,-7.5 -26.25,-11.25 -37.808,-11.25 -5.942,0 -11.09,0.929 -15.469,2.808 -4.293,1.871 -7.621,4.141 -10,6.871 -2.422,2.699 -4.332,6.141 -5.781,10.321 -1.371,4.25 -2.27,8.32 -2.661,12.179 -0.429,3.832 -0.621,8.211 -0.621,13.129 v 64.063 h 17.813 v -65.313 c 0,-18.75 8.129,-28.129 24.379,-28.129 8.32,0 17.847,2.821 28.59,8.442 z" /><path
         id="path72"
         style="fill:#003366;fill-opacity:1;fill-rule:nonzero;stroke:none"
         d="m 318.91,263.672 c 1.559,0 3,-0.082 4.371,-0.152 1.328,0 2.66,-0.122 3.91,-0.321 1.25,-0.109 2.258,-0.23 3.118,-0.308 0.941,0 1.961,-0.121 3.132,-0.313 1.25,-0.238 2.11,-0.387 2.649,-0.469 0.629,-0.121 1.57,-0.39 2.82,-0.781 1.25,-0.308 1.949,-0.547 2.18,-0.629 0.32,0 1.14,-0.23 2.5,-0.621 1.449,-0.43 2.351,-0.699 2.66,-0.777 l -4.691,-13.602 c -9.68,2.699 -18.2,4.071 -25.469,4.071 -4.289,0 -8.078,-0.469 -11.399,-1.411 -3.242,-0.859 -5.742,-1.879 -7.5,-3.129 -1.8,-1.171 -3.242,-2.57 -4.382,-4.21 -1.168,-1.68 -1.868,-3.129 -2.188,-4.379 -0.312,-1.172 -0.461,-2.301 -0.461,-3.442 0,-3.039 1.481,-5.699 4.531,-7.969 3.118,-2.3 6.95,-4.179 11.559,-5.621 4.57,-1.488 9.531,-3.199 14.84,-5.16 5.39,-1.988 10.39,-4.058 15,-6.25 4.57,-2.179 8.359,-5.308 11.41,-9.371 3.121,-3.988 4.691,-8.558 4.691,-13.75 0,-2.93 -0.429,-5.777 -1.25,-8.598 -0.742,-2.808 -2.191,-5.742 -4.382,-8.75 -2.11,-3.039 -4.797,-5.621 -8.118,-7.808 -3.363,-2.192 -7.89,-4.024 -13.601,-5.473 -5.621,-1.437 -12.11,-2.179 -19.371,-2.179 -11.059,0 -23.199,2.691 -36.41,8.121 l 5,13.437 c 7.5,-2.738 13.601,-4.648 18.281,-5.777 4.691,-1.172 9.301,-1.723 13.91,-1.723 17.578,0 26.41,5.551 26.41,16.723 0,2.5 -0.898,4.679 -2.66,6.558 -1.68,1.871 -3.98,3.36 -6.879,4.532 -2.812,1.25 -6.051,2.5 -9.68,3.75 -3.671,1.25 -7.421,2.379 -11.25,3.437 -3.75,1.133 -7.461,2.582 -11.101,4.371 -3.668,1.762 -6.949,3.68 -9.84,5.781 -2.93,2.192 -5.27,4.93 -7.031,8.29 -1.68,3.429 -2.5,7.261 -2.5,11.558 0,2.582 0.39,5.231 1.25,7.973 0.82,2.687 2.383,5.539 4.691,8.59 2.262,3.007 5.07,5.629 8.43,7.808 3.441,2.27 7.969,4.141 13.601,5.629 5.7,1.563 12.11,2.344 19.219,2.344 z" /><path
         id="path74"
         style="fill:#003366;fill-opacity:1;fill-rule:nonzero;stroke:none"
         d="m 441.52,156.328 c -10.43,-2.699 -18.59,-4.058 -24.532,-4.058 -5.859,0 -10.777,0.929 -14.84,2.808 -4.058,1.871 -7.148,4.531 -9.218,7.973 -2.11,3.508 -3.59,7.258 -4.532,11.25 -0.859,4.058 -1.25,8.668 -1.25,13.898 v 59.379 H 372.77 v 14.063 h 14.378 v 30.629 h 17.813 v -30.629 h 32.5 v -14.063 h -32.5 v -59.219 c 0,-14.808 5.82,-22.187 17.5,-22.187 2.07,0 7.578,0.777 16.559,2.348 z" /><path
         id="path76"
         style="fill:#003366;fill-opacity:1;fill-rule:nonzero;stroke:none"
         d="m 515.469,263.672 c 14.761,0 26.953,-4.762 36.562,-14.223 9.571,-9.488 14.379,-22.57 14.379,-39.219 0,-17.73 -4.93,-31.832 -14.691,-42.339 -9.809,-10.43 -22.457,-15.621 -37.969,-15.621 -14.801,0 -26.949,4.878 -36.41,14.679 -9.371,9.77 -14.059,23.051 -14.059,39.852 0,17.258 4.77,31.09 14.379,41.398 9.57,10.321 22.18,15.473 37.809,15.473 z M 513.91,248.52 c -8.871,0 -16.64,-3.442 -23.289,-10.321 -6.672,-6.871 -10,-16.32 -10,-28.277 0,-11.992 3.207,-22.113 9.688,-30.313 6.57,-8.129 15,-12.187 25.312,-12.187 9.578,0 17.539,3.598 23.91,10.777 6.328,7.27 9.528,16.762 9.528,28.442 0,6.64 -1.047,12.699 -3.118,18.129 -2.113,5.39 -4.812,9.761 -8.132,13.121 -3.36,3.437 -7.11,6.019 -11.25,7.808 -4.059,1.879 -8.278,2.821 -12.649,2.821 z" /><path
         id="path78"
         style="fill:#003366;fill-opacity:1;fill-rule:nonzero;stroke:none"
         d="m 642.93,247.27 c -6.25,0 -14.61,-2.782 -25,-8.29 v -84.531 h -17.809 v 107.192 h 12.5 l 3.75,-8.911 c 12.891,7.27 24.098,10.942 33.59,10.942 10.937,0 19.527,-4.024 25.777,-12.031 14.063,7.89 26.723,11.879 37.973,11.879 5.391,0 10.16,-0.75 14.219,-2.192 4.14,-1.488 7.5,-3.519 10,-6.098 2.582,-2.609 4.73,-5.851 6.41,-9.679 1.64,-3.871 2.73,-7.973 3.281,-12.352 0.617,-4.289 0.93,-9.14 0.93,-14.527 v -64.223 h -17.653 v 65.473 c 0,1.328 -0.078,2.539 -0.16,3.598 -0.117,1.128 -0.308,2.691 -0.617,4.679 -0.242,1.961 -0.633,3.75 -1.25,5.321 -0.551,1.558 -1.371,3.199 -2.5,5 -1.172,1.871 -2.5,3.359 -4.07,4.531 -1.563,1.25 -3.59,2.219 -6.09,2.969 -2.5,0.82 -5.27,1.25 -8.281,1.25 -6.68,0 -15.43,-2.821 -26.25,-8.442 0.941,-4.297 1.41,-11.207 1.41,-20.777 v -63.602 h -17.66 v 65.942 c 0,1.879 -0.121,3.629 -0.309,5.308 -0.121,1.762 -0.633,4.071 -1.57,6.879 -0.852,2.813 -1.992,5.192 -3.43,7.192 -1.492,1.949 -3.711,3.671 -6.723,5.152 -2.929,1.558 -6.41,2.348 -10.468,2.348 z" /><path
         id="path80"
         style="fill:#003366;fill-opacity:1;fill-rule:nonzero;stroke:none"
         d="m 844.609,308.52 h 19.532 l 38.75,-129.379 39.058,129.379 h 18.442 l 40.159,-129.379 37.65,129.379 h 19.53 l -47.5,-154.071 h -19.679 l -40.473,128.75 -37.808,-128.75 h -19.54 z" /><path
         id="path82"
         style="fill:#003366;fill-opacity:1;fill-rule:nonzero;stroke:none"
         d="m 1099.3,253.52 c 9.06,6.75 19.06,10.152 30,10.152 7.5,0 14.29,-1.402 20.47,-4.223 l -5.47,-14.219 c -5.63,2.192 -11.49,3.29 -17.5,3.29 -9.07,0 -17.58,-2.5 -25.47,-7.5 v -86.571 h -17.81 v 107.192 h 12.5 z" /><path
         id="path84"
         style="fill:#003366;fill-opacity:1;fill-rule:nonzero;stroke:none"
         d="m 1168.48,308.52 h 21.0898 V 288.0512 H 1168.48 Z m 1.72,-46.879 h 17.8125 V 154.45 H 1170.2 Z" /><path
         id="path86"
         style="fill:#003366;fill-opacity:1;fill-rule:nonzero;stroke:none"
         d="m 1283.87,156.328 c -10.43,-2.699 -18.6,-4.058 -24.53,-4.058 -5.86,0 -10.79,0.929 -14.85,2.808 -4.06,1.871 -7.15,4.531 -9.22,7.973 -2.11,3.508 -3.59,7.258 -4.53,11.25 -0.86,4.058 -1.25,8.668 -1.25,13.898 v 59.379 h -14.37 v 14.063 h 14.37 v 30.629 h 17.81 v -30.629 h 32.5 v -14.063 h -32.5 v -59.219 c 0,-14.808 5.82,-22.187 17.5,-22.187 2.08,0 7.58,0.777 16.57,2.348 z" /><path
         id="path88"
         style="fill:#003366;fill-opacity:1;fill-rule:nonzero;stroke:none"
         d="m 1367.97,156.328 c -10.43,-2.699 -18.59,-4.058 -24.53,-4.058 -5.86,0 -10.78,0.929 -14.85,2.808 -4.06,1.871 -7.14,4.531 -9.21,7.973 -2.11,3.508 -3.6,7.258 -4.54,11.25 -0.86,4.058 -1.25,8.668 -1.25,13.898 v 59.379 h -14.37 v 14.063 h 14.37 v 30.629 h 17.82 v -30.629 h 32.5 v -14.063 h -32.5 v -59.219 c 0,-14.808 5.82,-22.187 17.5,-22.187 2.07,0 7.57,0.777 16.56,2.348 z" /><path
         id="path90"
         style="fill:#003366;fill-opacity:1;fill-rule:nonzero;stroke:none"
         d="m 1441.29,263.672 c 5.19,0 9.88,-0.703 14.06,-2.031 4.14,-1.25 7.58,-2.891 10.31,-4.84 2.7,-1.879 5.04,-4.379 7.04,-7.5 1.95,-3.129 3.47,-6.211 4.53,-9.223 1.13,-2.93 1.95,-6.488 2.5,-10.629 0.62,-4.058 0.97,-7.609 1.09,-10.621 0.08,-3.047 0.16,-6.637 0.16,-10.777 v -8.442 h -73.6 c 0,-3.871 0.86,-7.73 2.66,-11.558 1.76,-3.871 4.26,-7.43 7.5,-10.629 3.2,-3.242 7.42,-5.902 12.66,-7.973 5.31,-1.988 11.13,-2.969 17.5,-2.969 7.5,0 15.62,1.29 24.37,3.911 l 3.13,-12.192 c -11.68,-3.937 -23.09,-5.929 -34.22,-5.929 -7.93,0 -14.96,1.05 -21.1,3.121 -6.05,2.07 -10.93,4.769 -14.68,8.129 -3.75,3.429 -6.84,7.5 -9.22,12.179 -2.31,4.692 -3.91,9.379 -4.85,14.071 -0.93,4.679 -1.4,9.609 -1.4,14.839 0,8.012 0.97,15.313 2.97,21.871 1.95,6.641 4.6,12.231 7.96,16.719 3.32,4.571 7.19,8.442 11.57,11.571 4.45,3.121 9.14,5.351 14.06,6.71 4.88,1.45 9.88,2.192 15,2.192 z m -3.91,-15.473 c -6.36,0 -11.83,-1.789 -16.4,-5.308 -4.61,-3.442 -7.93,-7.77 -10,-12.969 -2.11,-5.231 -3.13,-10.863 -3.13,-16.871 h 55.94 c 0,23.429 -8.83,35.148 -26.41,35.148 z" /><path
         id="path92"
         style="fill:#003366;fill-opacity:1;fill-rule:nonzero;stroke:none"
         d="m 1514.84,261.641 h 12.5 l 3.91,-9.219 c 13.75,7.5 26.29,11.25 37.66,11.25 5.82,0 10.93,-0.942 15.31,-2.813 4.37,-1.8 7.69,-4.058 10,-6.879 2.38,-2.73 4.26,-6.21 5.62,-10.46 1.45,-4.301 2.39,-8.36 2.82,-12.192 0.39,-3.75 0.62,-8.09 0.62,-12.969 v -63.91 h -17.81 v 65 c 0,18.832 -8.09,28.281 -24.22,28.281 -8.44,0 -17.97,-2.808 -28.59,-8.429 v -84.852 h -17.82 z" /><path
         id="path94"
         style="fill:#003366;fill-opacity:1;fill-rule:nonzero;stroke:none"
         d="m 1755.9,266.172 c 0,-5.121 -0.63,-10 -1.88,-14.692 -1.25,-4.601 -3.2,-8.98 -5.78,-13.121 -2.62,-4.179 -6.21,-7.808 -10.78,-10.937 -4.61,-3.043 -9.96,-5.274 -16.09,-6.723 l 43.59,-66.25 h -20.62 l -41.72,64.223 h -29.85 v -64.223 h -18.59 V 308.52 h 56.56 c 2.58,0 4.92,-0.122 7.03,-0.321 2.19,-0.109 4.89,-0.469 8.13,-1.09 3.32,-0.629 6.25,-1.488 8.75,-2.5 2.5,-1.058 5.15,-2.66 7.97,-4.839 2.81,-2.11 5.08,-4.61 6.87,-7.5 1.88,-2.821 3.36,-6.489 4.53,-10.942 1.25,-4.488 1.88,-9.527 1.88,-15.156 z m -83.13,-31.25 h 26.57 c 3.63,0 6.87,0.078 9.68,0.308 2.82,0.321 6.1,0.981 9.85,2.04 3.83,1.128 7.03,2.691 9.53,4.679 2.5,1.961 4.61,4.852 6.4,8.602 1.76,3.828 2.66,8.359 2.66,13.59 0,3.75 -0.47,7.07 -1.41,10 -0.93,2.89 -2.14,5.308 -3.59,7.187 -1.48,1.953 -3.24,3.633 -5.31,5 -2.11,1.442 -4.14,2.543 -6.1,3.281 -1.87,0.7 -4.02,1.289 -6.4,1.719 -2.42,0.391 -4.38,0.66 -5.94,0.781 -1.56,0.192 -3.24,0.313 -5,0.313 h -30.94 z" /><path
         id="path96"
         style="fill:#003366;fill-opacity:1;fill-rule:nonzero;stroke:none"
         d="m 1844.49,263.672 c 5.2,0 9.89,-0.703 14.06,-2.031 4.15,-1.25 7.58,-2.891 10.32,-4.84 2.69,-1.879 5.04,-4.379 7.03,-7.5 1.95,-3.129 3.48,-6.211 4.53,-9.223 1.13,-2.93 1.95,-6.488 2.5,-10.629 0.62,-4.058 0.98,-7.609 1.09,-10.621 0.08,-3.047 0.16,-6.637 0.16,-10.777 v -8.442 h -73.59 c 0,-3.871 0.86,-7.73 2.65,-11.558 1.76,-3.871 4.26,-7.43 7.5,-10.629 3.21,-3.242 7.42,-5.902 12.66,-7.973 5.31,-1.988 11.13,-2.969 17.5,-2.969 7.5,0 15.62,1.29 24.37,3.911 l 3.13,-12.192 c -11.68,-3.937 -23.09,-5.929 -34.22,-5.929 -7.93,0 -14.96,1.05 -21.09,3.121 -6.06,2.07 -10.94,4.769 -14.69,8.129 -3.75,3.429 -6.84,7.5 -9.22,12.179 -2.3,4.692 -3.91,9.379 -4.84,14.071 -0.94,4.679 -1.41,9.609 -1.41,14.839 0,8.012 0.98,15.313 2.97,21.871 1.95,6.641 4.61,12.231 7.97,16.719 3.32,4.571 7.18,8.442 11.56,11.571 4.45,3.121 9.14,5.351 14.06,6.71 4.89,1.45 9.89,2.192 15,2.192 z m -3.9,-15.473 c -6.37,0 -11.84,-1.789 -16.41,-5.308 -4.61,-3.442 -7.93,-7.77 -10,-12.969 -2.11,-5.231 -3.13,-10.863 -3.13,-16.871 h 55.94 c 0,23.429 -8.83,35.148 -26.4,35.148 z" /><path
         id="path98"
         style="fill:#003366;fill-opacity:1;fill-rule:nonzero;stroke:none"
         d="m 1962.42,263.672 c 1.56,0 3.01,-0.082 4.38,-0.152 1.32,0 2.65,-0.122 3.9,-0.321 1.25,-0.109 2.27,-0.23 3.13,-0.308 0.94,0 1.95,-0.121 3.12,-0.313 1.25,-0.238 2.11,-0.387 2.66,-0.469 0.62,-0.121 1.56,-0.39 2.81,-0.781 1.25,-0.308 1.96,-0.547 2.19,-0.629 0.31,0 1.13,-0.23 2.5,-0.621 1.44,-0.43 2.34,-0.699 2.66,-0.777 l -4.69,-13.602 c -9.69,2.699 -18.2,4.071 -25.47,4.071 -4.3,0 -8.09,-0.469 -11.41,-1.411 -3.24,-0.859 -5.74,-1.879 -7.5,-3.129 -1.79,-1.171 -3.24,-2.57 -4.37,-4.21 -1.17,-1.68 -1.88,-3.129 -2.19,-4.379 -0.31,-1.172 -0.47,-2.301 -0.47,-3.442 0,-3.039 1.49,-5.699 4.53,-7.969 3.13,-2.3 6.96,-4.179 11.57,-5.621 4.57,-1.488 9.53,-3.199 14.84,-5.16 5.39,-1.988 10.39,-4.058 15,-6.25 4.57,-2.179 8.36,-5.308 11.41,-9.371 3.12,-3.988 4.68,-8.558 4.68,-13.75 0,-2.93 -0.43,-5.777 -1.25,-8.598 -0.74,-2.808 -2.18,-5.742 -4.37,-8.75 -2.11,-3.039 -4.81,-5.621 -8.13,-7.808 -3.36,-2.192 -7.89,-4.024 -13.59,-5.473 -5.63,-1.437 -12.11,-2.179 -19.38,-2.179 -11.05,0 -23.2,2.691 -36.4,8.121 l 5,13.437 c 7.5,-2.738 13.59,-4.648 18.28,-5.777 4.69,-1.172 9.3,-1.723 13.91,-1.723 17.57,0 26.4,5.551 26.4,16.723 0,2.5 -0.9,4.679 -2.65,6.558 -1.68,1.871 -3.99,3.36 -6.88,4.532 -2.81,1.25 -6.05,2.5 -9.69,3.75 -3.67,1.25 -7.42,2.379 -11.25,3.437 -3.75,1.133 -7.46,2.582 -11.09,4.371 -3.67,1.762 -6.95,3.68 -9.84,5.781 -2.93,2.192 -5.28,4.93 -7.04,8.29 -1.68,3.429 -2.5,7.261 -2.5,11.558 0,2.582 0.39,5.231 1.25,7.973 0.82,2.687 2.39,5.539 4.69,8.59 2.27,3.007 5.08,5.629 8.44,7.808 3.44,2.27 7.97,4.141 13.59,5.629 5.71,1.563 12.11,2.344 19.22,2.344 z" /><path
         id="path100"
         style="fill:#003366;fill-opacity:1;fill-rule:nonzero;stroke:none"
         d="m 2074.26,263.672 c 5.19,0 9.88,-0.703 14.06,-2.031 4.14,-1.25 7.58,-2.891 10.31,-4.84 2.7,-1.879 5.04,-4.379 7.03,-7.5 1.96,-3.129 3.48,-6.211 4.54,-9.223 1.13,-2.93 1.95,-6.488 2.5,-10.629 0.62,-4.058 0.97,-7.609 1.09,-10.621 0.08,-3.047 0.16,-6.637 0.16,-10.777 v -8.442 h -73.6 c 0,-3.871 0.86,-7.73 2.66,-11.558 1.76,-3.871 4.26,-7.43 7.5,-10.629 3.2,-3.242 7.42,-5.902 12.65,-7.973 5.32,-1.988 11.14,-2.969 17.5,-2.969 7.5,0 15.63,1.29 24.38,3.911 l 3.12,-12.192 c -11.68,-3.937 -23.08,-5.929 -34.21,-5.929 -7.93,0 -14.97,1.05 -21.1,3.121 -6.05,2.07 -10.94,4.769 -14.69,8.129 -3.75,3.429 -6.83,7.5 -9.21,12.179 -2.31,4.692 -3.91,9.379 -4.85,14.071 -0.94,4.679 -1.4,9.609 -1.4,14.839 0,8.012 0.97,15.313 2.96,21.871 1.96,6.641 4.61,12.231 7.97,16.719 3.32,4.571 7.19,8.442 11.57,11.571 4.45,3.121 9.14,5.351 14.06,6.71 4.88,1.45 9.88,2.192 15,2.192 z m -3.91,-15.473 c -6.37,0 -11.83,-1.789 -16.4,-5.308 -4.61,-3.442 -7.93,-7.77 -10,-12.969 -2.11,-5.231 -3.13,-10.863 -3.13,-16.871 h 55.94 c 0,23.429 -8.83,35.148 -26.41,35.148 z" /><path
         id="path102"
         style="fill:#003366;fill-opacity:1;fill-rule:nonzero;stroke:none"
         d="m 2183.28,263.672 c 7.89,0 14.61,-0.942 20.16,-2.813 5.51,-1.879 9.76,-4.609 12.81,-8.129 3.01,-3.55 5.16,-7.5 6.41,-11.871 1.32,-4.3 2.03,-9.218 2.03,-14.839 v -71.571 h -12.66 l -4.06,9.692 c -8.75,-7.93 -18.83,-11.871 -30.16,-11.871 -10.11,0 -18.71,3 -25.78,9.058 -6.99,6.133 -10.47,13.32 -10.47,21.563 0,4.257 0.78,8.129 2.35,11.558 1.64,3.52 3.94,6.449 6.87,8.75 3.01,2.27 6.45,4.262 10.31,5.942 3.83,1.64 8.32,2.89 13.44,3.75 5.08,0.82 10.2,1.41 15.31,1.718 5.08,0.391 10.71,0.621 16.88,0.621 v 8.442 c 0,2.5 -0.12,4.609 -0.31,6.406 -0.12,1.871 -0.71,4.063 -1.72,6.563 -1.06,2.5 -2.46,4.531 -4.22,6.089 -1.68,1.649 -4.22,3.051 -7.66,4.219 -3.43,1.25 -7.58,1.879 -12.34,1.879 -7.42,0 -16.95,-1.637 -28.59,-4.848 l -3.44,12.969 c 11.87,4.461 23.47,6.723 34.84,6.723 z m 23.44,-61.871 h -6.56 c -4.18,0 -7.78,-0.121 -10.78,-0.321 -3.05,-0.109 -6.57,-0.539 -10.63,-1.25 -4.06,-0.621 -7.42,-1.558 -10,-2.808 -2.62,-1.172 -4.84,-2.934 -6.72,-5.313 -1.87,-2.308 -2.81,-5.121 -2.81,-8.437 0,-4.492 2.26,-8.512 6.87,-12.031 4.69,-3.551 10.2,-5.313 16.57,-5.313 9.25,0 17.26,3.633 24.06,10.942 z" /><path
         id="path104"
         style="fill:#003366;fill-opacity:1;fill-rule:nonzero;stroke:none"
         d="m 2279.34,253.52 c 9.06,6.75 19.06,10.152 30,10.152 7.5,0 14.29,-1.402 20.46,-4.223 l -5.46,-14.219 c -5.63,2.192 -11.49,3.29 -17.5,3.29 -9.07,0 -17.58,-2.5 -25.47,-7.5 v -86.571 h -17.82 v 107.192 h 12.5 z" /><path
         id="path106"
         style="fill:#003366;fill-opacity:1;fill-rule:nonzero;stroke:none"
         d="m 2344.8,205.551 c 0,8.429 0.98,16.008 2.97,22.808 2.07,6.762 4.77,12.262 8.13,16.563 3.44,4.258 7.38,7.808 11.87,10.629 4.57,2.89 9.26,4.918 14.07,6.09 4.76,1.25 9.76,1.879 15,1.879 10.19,0 20.19,-2.149 30,-6.411 l -4.38,-12.968 c -8.05,2.699 -15.9,4.058 -23.59,4.058 -3.75,0 -7.31,-0.39 -10.63,-1.09 -3.24,-0.629 -6.52,-1.879 -9.84,-3.75 -3.36,-1.8 -6.21,-4.14 -8.6,-7.031 -2.3,-2.808 -4.18,-6.527 -5.62,-11.098 -1.37,-4.609 -2.03,-9.921 -2.03,-15.929 0,-6.571 0.7,-12.352 2.19,-17.352 1.56,-5 3.51,-9.058 5.93,-12.179 2.5,-3.129 5.47,-5.711 8.91,-7.661 3.44,-1.988 6.87,-3.359 10.31,-4.058 3.52,-0.75 7.35,-1.102 11.41,-1.102 6.76,0 13.51,1.172 20.31,3.602 l 4.38,-12.352 c -10.24,-3.937 -20.55,-5.929 -30.94,-5.929 -4.69,0 -9.22,0.46 -13.6,1.402 -4.37,0.937 -8.86,2.656 -13.43,5.156 -4.5,2.5 -8.4,5.66 -11.72,9.531 -3.24,3.832 -5.9,8.942 -7.97,15.313 -2.11,6.328 -3.13,13.629 -3.13,21.879 z" /><path
         id="path108"
         style="fill:#003366;fill-opacity:1;fill-rule:nonzero;stroke:none"
         d="m 2506.13,247.73 c -8.43,0 -17.97,-2.808 -28.59,-8.429 v -84.852 h -17.81 v 163.75 h 17.81 v -64.84 c 12.58,6.762 24.41,10.161 35.47,10.161 4.76,0 9.06,-0.629 12.81,-1.879 3.83,-1.25 6.95,-2.813 9.38,-4.692 2.5,-1.789 4.6,-4.14 6.4,-7.027 1.76,-2.934 3.05,-5.703 3.91,-8.281 0.94,-2.5 1.6,-5.551 2.03,-9.063 0.51,-3.558 0.82,-6.488 0.94,-8.75 0.07,-2.187 0.15,-4.848 0.15,-7.969 v -61.41 h -18.12 v 64.692 c 0,19.058 -8.13,28.589 -24.38,28.589 z" /><path
         id="path110"
         style="fill:#003366;fill-opacity:1;fill-rule:nonzero;stroke:none"
         d="m 2660.39,308.52 h 50.94 c 2.38,0 4.29,-0.079 5.78,-0.161 1.56,0 3.79,-0.16 6.72,-0.468 3.01,-0.231 5.55,-0.59 7.65,-1.09 2.19,-0.43 4.69,-1.102 7.5,-2.031 2.82,-0.942 5.2,-2.11 7.19,-3.442 2.07,-1.25 4.22,-2.969 6.41,-5.156 2.19,-2.113 3.94,-4.453 5.31,-7.031 1.33,-2.621 2.42,-5.782 3.28,-9.532 0.94,-3.668 1.41,-7.66 1.41,-12.031 0,-6.367 -0.74,-12.109 -2.19,-17.187 -1.48,-5.121 -3.36,-9.371 -5.62,-12.813 -2.31,-3.359 -5.28,-6.25 -8.91,-8.75 -3.56,-2.418 -7.11,-4.297 -10.63,-5.629 -3.55,-1.359 -7.73,-2.418 -12.5,-3.121 -4.8,-0.738 -9.14,-1.207 -12.96,-1.406 -3.75,-0.231 -8.13,-0.313 -13.13,-0.313 -4.92,0 -10.86,0.231 -17.81,0.782 v -64.692 h -18.44 z m 18.44,-73.129 c 6.95,-0.621 13.51,-0.942 19.69,-0.942 3.51,0 6.48,0 8.9,0 2.38,0.082 5.31,0.352 8.75,0.781 3.52,0.508 6.45,1.141 8.75,1.879 2.27,0.7 4.73,1.801 7.35,3.282 2.57,1.558 4.68,3.359 6.25,5.468 1.56,2.071 2.81,4.692 3.75,7.813 1.01,3.129 1.56,6.719 1.56,10.777 0,4.141 -0.55,7.852 -1.56,11.102 -1.06,3.199 -2.62,5.82 -4.69,7.808 -2.11,1.95 -4.3,3.59 -6.56,4.84 -2.31,1.25 -5.08,2.11 -8.29,2.66 -3.12,0.512 -5.93,0.86 -8.43,1.09 -2.42,0.199 -5.28,0.321 -8.6,0.321 h -26.87 z" /><path
         id="path112"
         style="fill:#003366;fill-opacity:1;fill-rule:nonzero;stroke:none"
         d="m 2829.22,263.672 c 7.89,0 14.61,-0.942 20.16,-2.813 5.5,-1.879 9.76,-4.609 12.81,-8.129 3.01,-3.55 5.15,-7.5 6.4,-11.871 1.33,-4.3 2.03,-9.218 2.03,-14.839 v -71.571 h -12.65 l -4.06,9.692 c -8.75,-7.93 -18.83,-11.871 -30.16,-11.871 -10.12,0 -18.71,3 -25.78,9.058 -6.99,6.133 -10.47,13.32 -10.47,21.563 0,4.257 0.78,8.129 2.34,11.558 1.64,3.52 3.95,6.449 6.88,8.75 3.01,2.27 6.44,4.262 10.31,5.942 3.83,1.64 8.32,2.89 13.44,3.75 5.08,0.82 10.19,1.41 15.31,1.718 5.08,0.391 10.7,0.621 16.88,0.621 v 8.442 c 0,2.5 -0.12,4.609 -0.32,6.406 -0.11,1.871 -0.7,4.063 -1.72,6.563 -1.05,2.5 -2.46,4.531 -4.21,6.089 -1.68,1.649 -4.22,3.051 -7.66,4.219 -3.44,1.25 -7.58,1.879 -12.34,1.879 -7.43,0 -16.96,-1.637 -28.6,-4.848 l -3.43,12.969 c 11.87,4.461 23.47,6.723 34.84,6.723 z m 23.44,-61.871 h -6.57 c -4.18,0 -7.77,-0.121 -10.78,-0.321 -3.04,-0.109 -6.56,-0.539 -10.62,-1.25 -4.07,-0.621 -7.42,-1.558 -10,-2.808 -2.62,-1.172 -4.85,-2.934 -6.72,-5.313 -1.88,-2.308 -2.81,-5.121 -2.81,-8.437 0,-4.492 2.26,-8.512 6.87,-12.031 4.69,-3.551 10.2,-5.313 16.56,-5.313 9.26,0 17.27,3.633 24.07,10.942 z" /><path
         id="path114"
         style="fill:#003366;fill-opacity:1;fill-rule:nonzero;stroke:none"
         d="m 2956.37,263.672 c 4.37,0 8.63,-0.551 12.81,-1.563 4.14,-1.058 8.36,-2.929 12.66,-5.629 4.25,-2.609 7.96,-5.929 11.09,-10 3.12,-3.98 5.66,-9.179 7.66,-15.621 1.95,-6.48 2.96,-13.711 2.96,-21.718 0,-17.5 -4.68,-31.371 -14.06,-41.563 -9.37,-10.238 -21.48,-15.308 -36.25,-15.308 -8.55,0 -17.19,1.949 -25.94,5.781 V 96.9492 h -17.81 V 261.641 h 12.35 l 2.96,-6.871 c 10.08,5.929 20.63,8.902 31.57,8.902 z m -6.1,-14.844 c -7.93,0 -15.58,-1.988 -22.97,-5.937 V 171.48 c 7.7,-3.429 15.47,-5.152 23.29,-5.152 3.32,0 6.48,0.352 9.53,1.094 3.12,0.699 6.29,2.027 9.53,3.906 3.2,1.871 6.01,4.262 8.44,7.192 2.38,2.89 4.29,6.71 5.78,11.402 1.56,4.769 2.34,10.199 2.34,16.25 0,6.758 -0.78,12.738 -2.34,17.969 -1.57,5.199 -3.6,9.3 -6.1,12.339 -2.5,3.008 -5.43,5.508 -8.75,7.5 -3.24,1.961 -6.4,3.29 -9.53,3.911 -3.04,0.629 -6.09,0.937 -9.22,0.937 z" /><path
         id="path116"
         style="fill:#003366;fill-opacity:1;fill-rule:nonzero;stroke:none"
         d="m 3083.05,263.672 c 5.19,0 9.88,-0.703 14.06,-2.031 4.14,-1.25 7.58,-2.891 10.31,-4.84 2.7,-1.879 5.04,-4.379 7.03,-7.5 1.96,-3.129 3.48,-6.211 4.53,-9.223 1.14,-2.93 1.96,-6.488 2.5,-10.629 0.63,-4.058 0.98,-7.609 1.1,-10.621 0.08,-3.047 0.15,-6.637 0.15,-10.777 v -8.442 h -73.59 c 0,-3.871 0.86,-7.73 2.66,-11.558 1.75,-3.871 4.25,-7.43 7.5,-10.629 3.2,-3.242 7.42,-5.902 12.65,-7.973 5.32,-1.988 11.14,-2.969 17.5,-2.969 7.5,0 15.63,1.29 24.38,3.911 l 3.12,-12.192 c -11.68,-3.937 -23.08,-5.929 -34.22,-5.929 -7.93,0 -14.96,1.05 -21.09,3.121 -6.05,2.07 -10.94,4.769 -14.69,8.129 -3.75,3.429 -6.83,7.5 -9.22,12.179 -2.3,4.692 -3.9,9.379 -4.84,14.071 -0.94,4.679 -1.41,9.609 -1.41,14.839 0,8.012 0.98,15.313 2.97,21.871 1.96,6.641 4.61,12.231 7.97,16.719 3.32,4.571 7.19,8.442 11.56,11.571 4.46,3.121 9.14,5.351 14.07,6.71 4.88,1.45 9.88,2.192 15,2.192 z m -3.91,-15.473 c -6.37,0 -11.84,-1.789 -16.41,-5.308 -4.61,-3.442 -7.93,-7.77 -10,-12.969 -2.11,-5.231 -3.12,-10.863 -3.12,-16.871 h 55.94 c 0,23.429 -8.83,35.148 -26.41,35.148 z" /><path
         id="path118"
         style="fill:#003366;fill-opacity:1;fill-rule:nonzero;stroke:none"
         d="m 3172.38,253.52 c 9.07,6.75 19.07,10.152 30,10.152 7.5,0 14.3,-1.402 20.47,-4.223 l -5.47,-14.219 c -5.62,2.192 -11.48,3.29 -17.5,3.29 -9.06,0 -17.58,-2.5 -25.47,-7.5 v -86.571 h -17.81 v 107.192 h 12.5 z" /><path
         id="path120"
         style="fill:#003366;fill-opacity:1;fill-rule:nonzero;stroke:none"
         d="m 3287.7,263.672 c 1.56,0 3,-0.082 4.37,-0.152 1.33,0 2.66,-0.122 3.91,-0.321 1.25,-0.109 2.26,-0.23 3.12,-0.308 0.94,0 1.95,-0.121 3.13,-0.313 1.25,-0.238 2.11,-0.387 2.65,-0.469 0.63,-0.121 1.57,-0.39 2.82,-0.781 1.25,-0.308 1.95,-0.547 2.18,-0.629 0.32,0 1.14,-0.23 2.5,-0.621 1.45,-0.43 2.35,-0.699 2.66,-0.777 l -4.69,-13.602 c -9.69,2.699 -18.2,4.071 -25.47,4.071 -4.29,0 -8.08,-0.469 -11.4,-1.411 -3.25,-0.859 -5.75,-1.879 -7.5,-3.129 -1.8,-1.171 -3.25,-2.57 -4.38,-4.21 -1.17,-1.68 -1.87,-3.129 -2.19,-4.379 -0.31,-1.172 -0.46,-2.301 -0.46,-3.442 0,-3.039 1.48,-5.699 4.53,-7.969 3.12,-2.3 6.95,-4.179 11.56,-5.621 4.57,-1.488 9.53,-3.199 14.84,-5.16 5.39,-1.988 10.39,-4.058 15,-6.25 4.57,-2.179 8.36,-5.308 11.41,-9.371 3.12,-3.988 4.69,-8.558 4.69,-13.75 0,-2.93 -0.43,-5.777 -1.25,-8.598 -0.75,-2.808 -2.19,-5.742 -4.38,-8.75 -2.11,-3.039 -4.8,-5.621 -8.12,-7.808 -3.36,-2.192 -7.89,-4.024 -13.6,-5.473 -5.62,-1.437 -12.11,-2.179 -19.37,-2.179 -11.06,0 -23.21,2.691 -36.41,8.121 l 5,13.437 c 7.5,-2.738 13.6,-4.648 18.28,-5.777 4.69,-1.172 9.3,-1.723 13.91,-1.723 17.58,0 26.41,5.551 26.41,16.723 0,2.5 -0.9,4.679 -2.66,6.558 -1.68,1.871 -3.99,3.36 -6.88,4.532 -2.81,1.25 -6.05,2.5 -9.68,3.75 -3.68,1.25 -7.43,2.379 -11.25,3.437 -3.75,1.133 -7.46,2.582 -11.1,4.371 -3.67,1.762 -6.95,3.68 -9.84,5.781 -2.93,2.192 -5.27,4.93 -7.03,8.29 -1.68,3.429 -2.5,7.261 -2.5,11.558 0,2.582 0.39,5.231 1.25,7.973 0.82,2.687 2.38,5.539 4.69,8.59 2.26,3.007 5.07,5.629 8.43,7.808 3.44,2.27 7.97,4.141 13.6,5.629 5.7,1.563 12.11,2.344 19.22,2.344 z" /></g></g></svg>