<?xml version="1.0" encoding="UTF-8" standalone="no"?>
<svg
   xmlns:dc="http://purl.org/dc/elements/1.1/"
   xmlns:cc="http://creativecommons.org/ns#"
   xmlns:rdf="http://www.w3.org/1999/02/22-rdf-syntax-ns#"
   xmlns:svg="http://www.w3.org/2000/svg"
   xmlns="http://www.w3.org/2000/svg"
   viewBox="0 0 572 304"
   height="304"
   width="572"
   xml:space="preserve"
   id="svg2"
   version="1.1"><metadata
     id="metadata8"><rdf:RDF><cc:Work
         rdf:about=""><dc:format>image/svg+xml</dc:format><dc:type
           rdf:resource="http://purl.org/dc/dcmitype/StillImage" /></cc:Work></rdf:RDF></metadata><defs
     id="defs6" /><g
     transform="matrix(1.3333333,0,0,-1.3333333,0,304)"
     id="g10"><g
       transform="scale(0.1)"
       id="g12"><path
         id="path14"
         style="fill:#dee3e3;fill-opacity:1;fill-rule:evenodd;stroke:none"
         d="m 1925.23,440.512 c -263.51,-7.352 -480.54,-30.59 -651.13,-69.813 -170.51,-39.961 -258.67,-88.508 -264.41,-145.617 7.38,-61.172 108.16,-112.152 302.34,-152.9726 194.22,-39.961 437.74,-60.8203 730.7,-62.41799 195,0 370.82,10.18749 527.47,30.57809 156.68,19.6094 280.7,45.711 372.1,78.3205 -5.74,-0.781 -11.09,-2.031 -15.93,-3.629 -193.36,-44.1016 -378.17,-36.3712 -554.42,23.199 -176.21,60.43 -325.19,161.219 -446.72,302.352" /><path
         id="path16"
         style="fill:#57973a;fill-opacity:1;fill-rule:evenodd;stroke:none"
         d="m 1747.77,2224.92 c 137.89,-61.95 288.01,-146.87 450.35,-254.53 48.95,27.73 100.79,51.33 155.47,70.94 -215.43,83.28 -417.34,144.49 -605.82,183.59" /><path
         id="path18"
         style="fill:#57973a;fill-opacity:1;fill-rule:evenodd;stroke:none"
         d="m 3677.81,1286.25 c 13.09,-65.31 19.61,-130.12 19.61,-194.69 166.45,-144.369 296.21,-288.751 389.26,-433.24 92.93,-143.59 92.15,-259.879 -2.5,-348.789 4.88,-0.781 9.37,22.457 13.48,69.809 3.24,48.082 -21.61,125.23 -74.69,231.281 -52.19,106.059 -161.56,246.41 -327.97,421.019 -9.84,-149.261 -49.41,-288.011 -118.75,-416.128 127.27,-215.434 161.6,-370.821 102.81,-466.332 -4.02,-7.27 -8.98,-13.399 -14.65,-18.36 310.86,-23.629 509.54,37.969 595.98,184.801 55.47,115.899 30.23,259.539 -75.82,430.859 -106.13,171.372 -275,351.22 -506.76,539.77" /><path
         id="path20"
         style="fill:#ffffff;fill-opacity:1;fill-rule:evenodd;stroke:none"
         d="m 3695,1031.64 c 165.62,-174.609 274.92,-314.96 327.97,-421.019 53.08,-106.051 77.58,-182.73 73.44,-230.031 -4.11,-48.211 -8.13,-71.84 -12.23,-71.059 94.65,88.91 95.43,205.199 2.5,348.789 -93.05,144.489 -223.2,288.871 -390.51,433.24 0.86,-20.35 0.47,-40.35 -1.17,-59.92" /><path
         id="path22"
         style="fill:#ffffff;fill-opacity:1;fill-rule:evenodd;stroke:none"
         d="m 3488.09,1706.02 c 2.5,-4.11 5.74,-8.13 9.88,-12.23 -3.28,4.1 -6.52,8.12 -9.88,12.23" /><path
         id="path24"
         style="fill:#ffffff;fill-opacity:1;fill-rule:evenodd;stroke:none"
         d="m 3015.74,529.84 c -20.47,30.98 -48.55,49.808 -84.53,56.289 -35.08,5.75 -67.3,17.109 -96.64,34.262 -28.52,20.429 -55.86,41.211 -81.95,62.418 -12.23,7.351 -21.21,17.972 -26.96,31.839 0.86,6.524 2,14.262 3.64,23.243 -8.13,8.199 -15.04,18.359 -20.78,30.589 -0.86,19.61 4.53,36.719 15.89,51.442 11.49,14.648 15.12,32.226 10.98,52.578 -8.12,15.512 -23.59,28.59 -46.44,39.219 -23.64,10.621 -31.49,2.851 -23.25,-23.239 -26.95,-9.851 -56.32,-4.101 -88.16,17.11 -32.62,21.988 -62.42,34.609 -89.3,37.961 -29.37,-2.5 -57.97,-5.352 -85.66,-8.59 -39.22,-1.641 -78.32,-1.25 -117.54,1.25 -57.93,13.008 -103.16,42.418 -135.86,88.049 -32.62,46.56 -72.58,84.06 -119.92,112.65 11.4,-25.35 21.99,-50.58 31.83,-75.93 24.5,-4.89 39.5,-19.5 45.24,-43.99 -29.34,16.25 -50.94,39.49 -64.81,69.69 -22.85,27.73 -46.56,55.94 -71.05,84.45 -40.74,55.55 -51.72,115.9 -33.01,181.17 9.02,32.62 12.27,64.46 9.77,95.43 -7.35,8.25 -14.26,21.65 -20.75,40.47 2.39,14.61 6.14,29.34 10.98,43.99 4.02,39.18 -9.34,65.66 -40.43,79.53 -14.61,-0.74 -31.76,-8.87 -51.33,-24.45 -10.62,-15.51 -24.49,-26.88 -41.6,-34.26 -1.64,6.52 0.39,15.51 6.1,26.99 -50.55,-91.41 -86.14,-188.95 -106.49,-292.62 137.11,-149.26 293.32,-298.982 468.71,-449.099 261.13,-220.312 507.15,-395.39 738.05,-525.043 -216.29,74.223 -439.34,170.512 -669.49,288.793 -196.6,102.848 -377.31,210.547 -542.15,323.168 4.02,-22.078 8.51,-44.929 13.47,-68.558 40.75,-159.961 111.76,-298.59 212.93,-416.129 122.39,-141.133 271.29,-241.922 446.72,-302.352 176.25,-59.5702 361.06,-67.3006 554.42,-23.199 5.7,1.598 10.97,3.238 15.93,4.84 66.1,16.371 128.52,39.219 187.23,68.558 -50.58,15.512 -77.93,64.45 -82.03,146.871 -4.02,82.43 -14.65,147.27 -31.76,194.61" /><path
         id="path26"
         style="fill:#ffffff;fill-opacity:1;fill-rule:evenodd;stroke:none"
         d="m 2740.39,1156.48 c -9.88,-13.86 -22.11,-22.46 -36.72,-25.7 -0.86,13.87 5.24,26.49 18.36,37.97 13.01,11.37 21.13,13.87 24.45,7.34 0.79,-5.74 -1.25,-12.22 -6.09,-19.61 m -104.06,-24.45 c -41.68,-5.74 -86.13,-8.63 -133.48,-8.63 3.36,22.11 24.96,33.48 64.92,34.33 39.11,0 68.09,-1.25 86.92,-3.71 3.28,-13.86 -2.85,-21.25 -18.36,-21.99 m -51.45,720.86 c -23.59,-1.64 -45.31,6.09 -64.8,23.24 -19.61,16.33 -38.83,28.56 -57.58,36.68 -47.3,10.63 -95.9,9.89 -145.62,-2.38 -5.75,26.13 8.98,49.73 44.1,70.98 34.22,21.21 62.34,29.72 84.41,25.7 l -8.59,15.86 c 17.11,-21.99 41.21,-33.83 72.18,-35.47 30.2,-1.6 53.05,-11.37 68.56,-29.34 8.98,-21.25 15.98,-42.85 20.86,-64.92 18.71,-23.63 14.22,-37.11 -13.52,-40.35 m -151.72,-53.83 c -22.85,-6.52 -48.94,-9.88 -78.32,-9.88 -4.1,24.49 -17.22,37.23 -39.22,37.97 -21.95,0.86 -34.68,13.12 -37.92,36.72 l 41.6,-3.64 c 28.55,-22.07 63.67,-26.95 105.27,-14.72 -5.74,-19.61 -2.89,-35.08 8.59,-46.45 m 252.15,-100.43 c 0.74,-5.7 0.35,-11.36 -1.25,-17.11 -17.97,-5.74 -35.47,-11.83 -52.69,-18.36 -12.23,15.51 -13.01,30.24 -2.39,44.11 l 9.77,-2.5 c 14.73,-4.03 30.2,-6.14 46.56,-6.14 m 1010.86,-607.07 c 0,64.57 -6.13,129.38 -18.36,194.69 -3.24,14.65 -6.52,29.37 -9.76,43.98 -16.33,68.56 -39.18,133.48 -68.56,194.69 -1.64,0 -2.85,-0.47 -3.63,-1.25 9.76,-34.33 4.02,-62.81 -17.11,-85.66 -26.09,0 -53.09,9.37 -80.78,28.08 -52.23,32.7 -94.69,75.55 -127.31,128.52 -20.43,22.85 -35.54,49.34 -45.31,79.57 -13.08,26.09 -28.94,48.94 -47.69,68.55 -13.13,17.97 -29.85,43.68 -50.2,77.07 -20.39,33.44 -24.1,55.55 -11.01,66.18 -4.11,17.85 -8.21,35.86 -12.23,53.82 14.61,-1.64 26.09,-8.24 34.22,-19.6 10.62,-2.5 20.47,-3.64 29.37,-3.64 -45.62,32.62 -93.83,61.21 -144.41,85.67 -7.35,-0.86 -13.83,0 -19.57,2.38 5.74,-28.48 20.47,-48.09 44.06,-58.71 23.63,-10.59 41.21,-28.56 52.58,-53.83 7.38,-30.19 -1.6,-40.43 -26.84,-30.59 -26.13,9.77 -46.95,19.14 -62.46,28.13 -14.72,3.24 -27.73,6.95 -39.18,10.98 -4.02,16.36 -3.63,27.73 1.21,34.33 -10.58,20.35 -27.34,29.73 -50.19,28.13 -15.47,18.71 -35.47,26.48 -59.92,23.2 -20.39,-7.34 -42,-13.01 -64.85,-17.11 -17.11,13.13 -33.86,24.88 -50.19,35.47 27.73,0 56.68,3.28 86.91,9.84 -14.73,21.14 -35.94,35.51 -63.67,42.85 -25.27,-12.22 -46.49,-11.83 -63.59,1.14 -24.5,-5.63 -48.95,-8.48 -73.44,-8.48 -1.64,1.6 -10.63,6.88 -26.96,15.86 -16.36,9.84 -28.98,15.98 -37.96,18.36 -22.86,-0.78 -43.25,3.24 -61.22,12.23 -51.32,-4.03 -102.77,-12.23 -154.21,-24.46 -34.22,-9.02 -67.7,-19.14 -100.32,-30.62 -53.82,-18.71 -105.66,-41.95 -155.47,-69.69 -155.85,-89.02 -279.02,-208.55 -369.57,-358.67 16.29,22.85 29.77,39.61 40.36,50.19 22.85,19.61 45.7,38.75 68.55,57.58 9.77,21.14 23.63,37.46 41.6,48.95 10.63,-4.96 24.1,-10.63 40.35,-17.19 23.71,1.6 46.21,5.35 67.31,11.05 39.22,-8.2 71.83,-6.56 97.93,4.89 -64.45,21.25 -61.56,35.86 8.59,44.1 32.62,0 60.35,-9.84 83.21,-29.45 -13.87,-14.65 -29.38,-38.36 -46.49,-70.94 -16.33,-32.62 -12.62,-55.08 11.02,-67.35 25.31,3.29 53.43,5.28 84.41,6.14 21.25,-19.61 43.71,-33.09 67.31,-40.35 -8.87,41.6 -18.36,81.17 -28.09,118.67 4.1,22.07 13.48,30.58 28.09,25.7 14.72,-5.74 30.23,-11.84 46.56,-18.36 4.02,35.86 22.89,45.7 56.33,29.38 13.86,-1.64 33.39,-3.28 58.71,-4.89 24.49,-1.64 41.99,-6.52 52.58,-14.72 11.48,-16.25 5.39,-37.11 -18.33,-62.35 -23.63,-25.35 -41.99,-45.7 -55.07,-61.21 19.57,1.64 36.72,0 51.4,-4.96 13.13,0.86 27.74,4.96 44.1,12.23 -5.74,-29.34 -24.49,-43.6 -56.32,-42.81 -13.87,-35.86 -26.96,-70.12 -39.18,-102.82 -13.01,-28.47 -17.89,-59.06 -14.65,-91.79 -13.09,-35.08 -24.49,-70.16 -34.34,-105.28 10.63,-30.97 24.1,-63.2 40.47,-96.64 -6.52,-3.28 -13.12,-4.88 -19.61,-4.88 -15.51,26.09 -37.11,39.96 -64.84,41.6 -12.23,3.24 -27.81,4.49 -46.56,3.71 -17.97,-0.86 -27.35,-10.62 -28.09,-29.45 -21.25,-8.87 -37.97,-12.62 -50.24,-10.98 -11.36,0.86 -21.95,-12.26 -31.83,-39.1 -13.01,-33.48 -11.84,-68.2 3.75,-104.06 21.99,-34.3 52.58,-49.42 91.8,-45.31 11.36,8.12 19.96,21.99 25.62,41.6 6.6,18.75 14.34,30.97 23.32,36.72 17.89,4.88 27.74,-3.64 29.34,-25.75 2.42,-21.99 7.77,-39.1 15.9,-51.32 15.46,-11.489 30.19,-13.481 44.06,-6.141 13.87,8.131 28.59,9.771 44.1,4.891 13.87,-28.598 32.97,-54.692 57.46,-78.321 20.47,0 34.69,6.52 42.81,19.602 18.87,2.39 32.74,3.25 41.72,2.39 7.27,0.86 15,1.637 23.21,2.5 -13.09,49.719 -0.36,77.069 37.96,81.949 37.5,5.74 72.19,10.59 104.03,14.73 25.27,20.35 54.22,32.22 86.83,35.47 32.7,-11.37 65.32,-20.75 97.93,-28.13 34.3,13.01 69.77,16.76 106.49,11.02 18,-9.77 31.87,-18.01 41.6,-24.5 8.98,-7.34 25.74,-8.98 50.19,-4.88 38.36,10.63 73.83,17.5 106.53,20.74 33.36,3.36 56.21,-16.25 68.47,-58.711 23.71,-101.988 11.1,-199.059 -37.89,-291.25 -19.57,-45.699 -37.57,-91.758 -53.9,-138.359 -14.65,-48.942 -42.85,-88.04 -84.42,-117.5 19.57,-17.891 15.94,-37.11 -11.01,-57.461 -26.96,-21.207 -46.96,-39.571 -59.96,-55.079 -26.1,-47.339 -30.98,-90.539 -14.73,-129.761 179.57,97.929 316.6,234.179 411.25,408.793 68.55,128.867 108.16,267.609 118.75,416.128 0.78,19.57 1.17,39.57 1.17,59.92" /><path
         id="path28"
         style="fill:#005494;fill-opacity:1;fill-rule:evenodd;stroke:none"
         d="m 3180.98,336.48 c 13,15.508 33,33.872 59.96,55.079 26.09,20.351 29.72,39.57 10.97,57.461 41.61,29.46 69.81,68.558 84.46,117.5 15.47,46.601 33.43,93.05 53.83,139.531 48.94,91.41 61.68,188.09 37.96,290.078 -12.26,42.461 -35.11,62.071 -68.55,58.711 -33.4,-3.24 -68.95,-9.72 -106.45,-19.49 -24.45,-4.1 -41.21,-2.85 -50.19,3.63 -9.77,6.49 -23.63,14.73 -41.6,24.5 -37.58,5.74 -73.05,2.46 -106.53,-9.77 -32.57,6.49 -65.19,15.51 -97.89,26.88 -33.47,-2.39 -62.46,-14.26 -86.91,-35.47 -31.76,-4.14 -66.84,-8.99 -105.2,-14.73 -37.57,-4.88 -50.19,-32.23 -37.96,-81.949 -8.21,-0.863 -15.47,-1.64 -22.08,-2.5 -8.9,0.86 -22.85,0 -41.6,-2.39 -8.12,-13.082 -22.85,-19.602 -44.06,-19.602 -23.63,23.629 -42.85,49.723 -57.46,78.321 -14.73,4.88 -29.38,3.24 -44.1,-4.891 -13.87,-7.34 -28.09,-5.348 -42.81,6.141 -8.13,12.22 -13.52,29.33 -15.9,51.32 -2.46,22.11 -12.7,30.63 -30.59,25.75 -8.24,-5.75 -15.58,-17.97 -22.07,-36.72 -6.52,-19.61 -15.51,-33.48 -26.87,-41.6 -39.22,-4.11 -69.81,11.01 -91.8,45.31 -14.73,36.72 -15.59,71.33 -2.5,104.06 8.98,26.84 19.61,39.96 31.84,39.1 11.4,-1.64 28.12,2.11 50.19,10.98 0,18.83 9.38,28.59 28.13,29.45 18.75,1.64 34.21,0.78 46.48,-2.5 26.95,-2.46 48.16,-16.72 63.67,-42.81 7.35,0.86 14.26,2.46 20.86,4.88 -16.37,33.44 -30.23,65.67 -41.72,96.64 10.63,35.12 22.11,70.2 34.34,105.28 -2.5,32.73 2.85,63.32 15.86,91.79 11.48,32.7 24.49,66.96 39.22,102.82 31.83,-0.79 50.58,13.47 56.32,42.81 -16.36,-7.27 -31.09,-11.37 -44.1,-12.23 -14.72,4.96 -31.83,6.6 -51.44,4.96 13.12,15.51 31.48,35.86 55.08,61.21 23.71,25.24 29.37,46.1 17.11,62.35 -10.59,8.2 -28.09,13.08 -52.58,14.72 -24.46,1.61 -43.68,3.25 -57.54,4.89 -33.4,16.32 -52.62,6.48 -57.5,-29.38 -16.33,6.52 -31.84,12.62 -46.56,18.36 -14.61,4.88 -23.6,-3.63 -26.84,-25.7 9.73,-37.5 18.71,-77.07 26.84,-118.67 -22.86,7.26 -45.2,20.74 -67.31,40.35 -30.12,-0.86 -58.32,-2.85 -84.41,-6.14 -23.64,12.27 -26.88,34.73 -9.77,67.35 17.11,32.58 32.23,56.29 45.24,70.94 -22,19.61 -49.34,29.45 -81.96,29.45 -71.05,-8.24 -73.83,-22.85 -8.59,-44.1 -26.1,-11.45 -59.1,-13.09 -99.18,-4.89 -21.1,-5.7 -43.2,-9.45 -66.06,-11.05 -17.11,6.56 -30.58,12.23 -40.35,17.19 -18.75,-10.63 -32.69,-26.96 -41.6,-48.95 -23.71,-18.83 -46.95,-37.58 -69.8,-56.33 -10.59,-11.48 -23.6,-28.59 -39.18,-51.44 -7.27,-11.37 -13.4,-21.99 -18.36,-31.84 -5.67,-11.36 -8.13,-20.74 -7.27,-28.12 17.11,7.38 31.37,18.75 42.81,34.26 18.75,16.32 35.51,24.45 50.12,24.45 31.09,-13.87 44.45,-40.35 40.43,-79.53 -4.1,-13.87 -7.73,-28.52 -10.98,-43.99 6.49,-17.97 13.87,-31.48 22,-40.47 1.64,-30.97 -2,-62.81 -11.02,-95.43 -18.71,-64.41 -7.34,-124.84 34.26,-181.17 23.71,-27.73 46.95,-55.86 69.8,-84.45 13.87,-30.2 35.47,-52.97 64.81,-68.56 -4.88,24.5 -19.61,38.83 -44.06,42.86 -10.63,26.09 -21.14,51.44 -31.76,75.93 47.34,-28.59 86.83,-65.7 118.67,-111.4 32.7,-46.49 77.93,-75.819 135.86,-88.088 39.22,-3.32 78.32,-3.711 117.54,-1.211 27.69,2.379 56.29,5.238 85.66,8.519 26.88,-4.031 56.68,-16.761 89.3,-37.89 32.69,-22.07 62.07,-27.82 88.16,-17.192 -7.38,25.313 0.39,32.692 23.25,22.071 22.85,-10.629 38.32,-23.239 46.44,-37.969 5,-20.352 1.64,-37.969 -9.73,-52.578 -12.26,-14.723 -18,-31.832 -17.14,-51.442 6.52,-12.23 13.86,-22.851 21.99,-31.839 -2.39,-8.981 -3.99,-16.25 -4.85,-21.993 6.49,-13.867 15.47,-24.847 26.96,-33.089 26.09,-21.207 53.43,-41.989 81.95,-62.418 29.34,-17.153 62.03,-28.512 97.89,-34.262 35.98,-5.738 64.06,-24.098 84.45,-55.078 16.33,-47.301 26.57,-112.61 30.59,-195.821 4.1,-82.421 31.45,-131.359 82.03,-146.871 13.87,-1.597 30.24,0.391 48.95,6.129 -4.85,3.242 -8.99,7.391 -12.23,12.231 -16.33,39.222 -11.37,82.422 14.73,129.761" /><path
         id="path30"
         style="fill:#005494;fill-opacity:1;fill-rule:evenodd;stroke:none"
         d="m 3204.22,1938.55 c 4.02,-17.1 7.73,-34.72 10.98,-52.57 -12.23,-10.63 -8.13,-33.09 12.26,-67.35 20.35,-33.43 37.07,-58.79 50.2,-75.9 18.75,-20.39 34.61,-43.24 47.69,-68.55 9.77,-30.23 24.88,-56.72 45.31,-79.57 32.62,-53.83 75.08,-96.68 127.31,-128.52 27.69,-19.57 54.69,-29.33 80.78,-29.33 21.13,23.59 26.87,52.58 17.11,86.91 0.78,0.78 1.99,1.25 3.63,1.25 8.24,1.6 13.48,-2.89 15.98,-13.47 v 17.1 c 11.37,19.61 1.13,45.32 -30.59,77.07 -31.87,31.84 -60.82,61.18 -86.91,88.17 -4.14,4.1 -7.38,8.12 -9.88,12.23 -8.87,11.36 -11.37,20.82 -7.27,28.12 -38.32,43.28 -81.17,84.49 -128.48,123.63 -21.25,21.21 -43.71,39.57 -67.34,55.04 -6.6,2.5 -12.23,3.75 -17.19,3.75 -8.9,-0.86 -18.75,0.39 -29.37,3.64 -8.13,11.36 -19.61,17.5 -34.22,18.35" /><path
         id="path32"
         style="fill:#005494;fill-opacity:1;fill-rule:evenodd;stroke:none"
         d="m 2577.54,1958.16 c -15.51,17.97 -38.36,27.74 -68.56,29.34 -30.97,0.86 -55.07,12.62 -72.18,35.47 l 7.34,-15.86 c -21.21,4.02 -49.34,-4.49 -84.41,-25.7 -34.34,-21.25 -48.6,-44.85 -42.85,-70.98 49.72,12.27 98.32,13.01 145.62,2.38 18.75,-8.12 37.97,-20.74 57.58,-37.93 19.49,-16.25 41.21,-23.63 64.8,-21.99 27.74,3.24 32.23,16.72 13.52,40.35 -4.88,22.07 -11.88,43.67 -20.86,64.92" /><path
         id="path34"
         style="fill:#005494;fill-opacity:1;fill-rule:evenodd;stroke:none"
         d="m 2669.34,2084.18 c 8.98,-2.38 21.6,-8.52 37.96,-18.36 16.33,-9.77 25.32,-15.12 26.96,-15.86 23.63,0 48.08,2.85 73.44,8.48 17.1,-13.83 38.32,-14.61 63.59,-2.39 27.73,-6.48 48.55,-20.46 62.42,-41.6 -29.33,-7.34 -57.93,-10.58 -85.66,-9.84 16.33,-10.59 32.61,-22.34 48.94,-35.47 23.63,3.24 45.71,8.63 66.1,15.9 24.45,3.32 44.45,-4.02 59.92,-21.99 22.11,0.86 38.83,-8.64 50.19,-28.13 -4.84,-6.6 -5.23,-18.36 -1.21,-35.58 10.59,-3.99 23.71,-7.27 39.18,-9.73 15.51,-9.77 35.86,-19.22 61.21,-28.13 26.1,-9.84 35.47,0.4 28.09,30.59 -11.37,24.49 -28.95,41.99 -52.58,52.62 -24.49,10.58 -39.18,30.58 -44.06,59.92 5.74,-2.38 12.22,-3.63 19.57,-3.63 5.74,0.78 11.01,0.78 15.9,0 -31.76,25.27 -69.73,41.6 -113.79,48.98 -41.6,18.71 -85.28,33.44 -131.02,44.06 -76.68,17.89 -154.1,27.74 -232.54,29.38 -8.86,0.74 -21.99,0.74 -39.1,0 -17.11,-0.9 -22.46,-9.88 -15.97,-26.99 18.86,-9.73 39.6,-13.87 62.46,-12.23" /><path
         id="path36"
         style="fill:#005494;fill-opacity:1;fill-rule:evenodd;stroke:none"
         d="m 2502.85,1123.4 c 48.2,0 93.05,2.89 134.65,8.63 15.59,0.74 21.68,8.13 18.36,21.99 -18.75,2.46 -48.09,3.71 -88.09,3.71 -39.96,-0.85 -61.56,-12.22 -64.92,-34.33" /><path
         id="path38"
         style="fill:#005494;fill-opacity:1;fill-rule:evenodd;stroke:none"
         d="m 2703.67,1130.78 c 15.47,3.24 28.09,11.84 37.85,25.7 4.96,6.53 7,13.01 6.14,19.61 -3.28,6.53 -11.41,4.03 -24.5,-7.34 -13,-11.48 -19.49,-24.1 -19.49,-37.97" /><path
         id="path40"
         style="fill:#005494;fill-opacity:1;fill-rule:evenodd;stroke:none"
         d="m 2425.78,1845.51 c -41.56,-12.23 -76.68,-7.35 -105.27,14.72 l -41.56,3.64 c 3.24,-23.6 15.85,-35.86 37.93,-36.72 21.99,-0.74 35.11,-13.48 39.1,-37.97 29.45,0 55.58,3.36 78.43,9.88 -12.26,11.37 -15.11,26.84 -8.63,46.45" /><path
         id="path42"
         style="fill:#005494;fill-opacity:1;fill-rule:evenodd;stroke:none"
         d="m 2631.37,1663.16 c 17.22,6.53 34.72,12.62 52.69,18.36 1.6,5.75 1.99,11.41 1.25,17.11 -16.36,0 -31.83,2.11 -46.56,6.14 l -9.77,2.5 c -10.62,-13.87 -9.84,-28.6 2.39,-44.11" /><path
         id="path44"
         style="fill:#57973a;fill-opacity:1;fill-rule:evenodd;stroke:none"
         d="m 966.879,2114.77 c -9.77,-107.66 37.571,-241.53 141.991,-401.41 103.63,-160.7 210.15,-304.73 319.45,-432.07 110.16,-126.41 169.73,-193.36 178.71,-200.7 -285.62,249.64 -471.6,450.82 -558.12,603.43 -86.531,151.76 -124.031,261.88 -112.621,330.43 11.441,68.48 21.68,101.96 30.59,100.32 M 2910.47,313.238 c -231.76,129.653 -477.7,304.731 -738.05,525.043 -175.39,150.117 -332.11,299.839 -469.96,449.099 -203.2,221.96 -351.21,421.88 -444.26,599.73 -93,177.93 -113.4,308.48 -61.17,391.64 0.74,0 1.6,0.47 2.38,1.25 -177.85,-17.97 -295.351,-78.71 -352.461,-182.34 -64.41,-138.75 -17.969,-313.71 139.531,-525.04 156.72,-211.29 394.11,-426.72 712.35,-646.249 164.84,-113.441 345.55,-221.492 542.15,-324.34 230.15,-118.281 453.2,-214.57 669.49,-288.793" /><path
         id="path46"
         style="fill:#ffffff;fill-opacity:1;fill-rule:evenodd;stroke:none"
         d="m 966.879,2116.02 c -8.129,0.86 -18.359,-32.62 -30.59,-100.4 -11.41,-68.47 26.09,-179.1 112.621,-331.6 86.52,-151.83 272.5,-352.93 558.12,-603.43 -8.98,7.34 -68.16,74.68 -177.46,201.95 -110.16,126.48 -217.07,270.12 -320.7,430.82 -103.67,160.74 -150.901,295 -141.991,402.66" /><path
         id="path48"
         style="fill:#005596;fill-opacity:1;fill-rule:nonzero;stroke:none"
         d="M -0.0390625,2247.34 H 267.93 c 12.582,0 22.968,-0.11 31.09,-0.31 8.21,-0.23 20.16,-1.01 35.781,-2.34 15.629,-1.37 28.949,-3.28 40,-5.78 11.019,-2.43 24.07,-6.21 39.07,-11.41 15.078,-5.12 27.969,-11.09 38.59,-17.97 10.629,-6.87 21.719,-15.94 33.277,-27.19 11.641,-11.17 21.024,-23.59 28.133,-37.34 7.07,-13.75 12.891,-30.31 17.5,-49.69 4.57,-19.37 6.867,-40.74 6.867,-64.06 0,-33.44 -3.859,-63.52 -11.558,-90.16 -7.621,-26.68 -17.418,-48.98 -29.379,-66.87 -11.992,-17.93 -27.5,-33.36 -46.563,-46.25 -19.058,-12.93 -37.929,-22.93 -56.558,-30 -18.668,-7.11 -40.629,-12.66 -65.942,-16.72 -25.308,-3.98 -47.968,-6.52 -67.968,-7.66 -20,-1.05 -43.122,-1.56 -69.372,-1.56 -25.937,0 -57.187,1.29 -93.7496,3.91 V 1435.47 H -0.0390625 Z M 97.1484,1861.72 c 36.5626,-3.13 71.1716,-4.69 103.9026,-4.69 18.64,0 34.258,0.2 46.879,0.63 12.582,0.39 28.011,1.75 46.25,4.06 18.32,2.26 33.59,5.39 45.781,9.37 12.187,3.95 25.078,9.93 38.75,17.97 13.75,8.01 24.687,17.42 32.809,28.28 8.21,10.82 15,24.54 20.32,41.1 5.39,16.56 8.121,35.51 8.121,56.87 0,22.07 -2.891,41.6 -8.59,58.6 -5.75,16.95 -14.031,30.54 -24.851,40.78 -10.86,10.31 -22.301,18.79 -34.372,25.47 -11.988,6.64 -26.488,11.4 -43.437,14.22 -16.871,2.89 -31.723,4.84 -44.531,5.78 -12.731,0.93 -27.809,1.4 -45.309,1.4 H 97.1484 Z" /><path
         id="path50"
         style="fill:#005596;fill-opacity:1;fill-rule:nonzero;stroke:none"
         d="M 10.6211,1135.78 H 152.34 L 421.719,626.559 695.309,1135.78 H 828.281 V 296.25 H 727.809 v 695.469 l -258.118,-455 H 369.219 l -258.278,455 V 296.25 H 10.6211 Z" /></g></g></svg>