
        <svg xmlns="http://www.w3.org/2000/svg" xmlns:xlink="http://www.w3.org/1999/xlink" version="1.1" width="3192" 
        height="3192" viewBox="0 0 3192 3192">
			
			<g transform="scale(9.6) translate(10, 10)">
				<defs id="SvgjsDefs16763"><linearGradient id="SvgjsLinearGradient16770"><stop id="SvgjsStop16771" stop-color="#006838" offset="0"></stop><stop id="SvgjsStop16772" stop-color="#96cf24" offset="1"></stop></linearGradient></defs><g id="SvgjsG16764" featureKey="rootContainer" transform="matrix(6.25,0,0,6.25,0.31249597668647766,0)" fill="url(#SvgjsLinearGradient16770)"><path xmlns="http://www.w3.org/2000/svg" d="M24.95 0a25 25 0 1 0 25 25 25 25 0 0 0-25-25zm0 46.91a22 22 0 1 1 22-22 22 22 0 0 1-22 21.99z"></path><path xmlns="http://www.w3.org/2000/svg" d="M24.95 3.65a21.3 21.3 0 1 0 21.3 21.3 21.33 21.33 0 0 0-21.3-21.3z"></path></g><g id="SvgjsG16765" featureKey="symbolFeature-0" transform="matrix(1.0192135592116098,0,0,1.0192135592116098,105.44435254832865,80.97471187489705)" fill="#eeeeee"><symbol xmlns="http://www.w3.org/2000/svg" viewBox="-25.978 -37.816 51.956 75.631"><g><g><path fill="#eeeeee" d="M-10.383,36.175c0,0-0.187-0.248-0.537-0.713c-0.344-0.47-0.813-1.183-1.417-2.077     c-0.591-0.905-1.269-2.026-2.029-3.315c-0.738-1.304-1.522-2.795-2.333-4.437c-0.785-1.657-1.562-3.477-2.316-5.421     c-0.336-0.988-0.732-1.983-1.042-3.031c-0.28-1.057-0.668-2.103-0.93-3.205c-0.245-1.105-0.562-2.212-0.76-3.357     c-0.17-1.15-0.417-2.3-0.57-3.473c-0.116-1.177-0.278-2.36-0.362-3.552c-0.038-1.195-0.076-2.396-0.114-3.595     c0.039-1.217,0.078-2.435,0.116-3.647c0.086-1.2,0.247-2.343,0.36-3.508c0.15-1.158,0.399-2.318,0.569-3.465     c0.198-1.145,0.515-2.252,0.76-3.357c0.261-1.102,0.649-2.148,0.929-3.205c0.311-1.048,0.707-2.043,1.042-3.031     c0.753-1.945,1.531-3.765,2.315-5.422c0.812-1.641,1.595-3.133,2.333-4.437c0.76-1.289,1.438-2.41,2.029-3.315     c0.604-0.895,1.073-1.607,1.417-2.077c0.35-0.466,0.537-0.714,0.537-0.714s-0.231,0.209-0.666,0.6     c-0.423,0.403-1.047,0.995-1.787,1.803c-0.362,0.411-0.764,0.865-1.201,1.36c-0.422,0.508-0.866,1.067-1.34,1.668     c-0.453,0.617-0.935,1.274-1.442,1.966c-0.477,0.714-0.979,1.467-1.479,2.268c-0.474,0.816-0.997,1.653-1.486,2.549     c-0.465,0.908-0.964,1.841-1.417,2.829c-0.427,0.999-0.917,2.008-1.324,3.077c-0.393,1.074-0.816,2.168-1.154,3.31     c-0.312,1.149-0.696,2.303-0.961,3.502c-0.247,1.206-0.548,2.407-0.719,3.665c-0.147,1.259-0.337,2.554-0.443,3.812     c-0.058,1.253-0.117,2.511-0.175,3.77c0.059,1.275,0.118,2.551,0.177,3.822c0.108,1.266,0.296,2.52,0.441,3.766     c0.168,1.244,0.471,2.456,0.718,3.658c0.265,1.2,0.649,2.354,0.961,3.503c0.338,1.142,0.762,2.236,1.154,3.31     c0.407,1.069,0.896,2.079,1.323,3.077c0.453,0.988,0.951,1.922,1.417,2.829c0.49,0.896,1.012,1.733,1.486,2.549     c0.5,0.801,1.002,1.555,1.479,2.269c0.508,0.692,0.989,1.349,1.442,1.966c0.473,0.601,0.918,1.161,1.339,1.669     c0.437,0.495,0.838,0.949,1.201,1.36c0.739,0.808,1.363,1.4,1.786,1.803c0.434,0.391,0.666,0.6,0.666,0.6L-10.383,36.175z"></path></g><g><path fill="#eeeeee" d="M10.388,36.18c0,0,0.231-0.209,0.666-0.6c0.423-0.403,1.047-0.995,1.786-1.803     c0.363-0.411,0.764-0.865,1.201-1.36c0.421-0.508,0.866-1.068,1.339-1.669c0.453-0.617,0.935-1.273,1.442-1.966     c0.477-0.714,0.979-1.467,1.479-2.269c0.474-0.816,0.996-1.654,1.486-2.549c0.465-0.907,0.964-1.841,1.417-2.829     c0.427-0.999,0.916-2.008,1.323-3.077c0.393-1.074,0.816-2.168,1.154-3.31c0.312-1.149,0.696-2.303,0.961-3.503     c0.247-1.203,0.549-2.414,0.718-3.658c0.145-1.247,0.333-2.5,0.441-3.766c0.059-1.271,0.118-2.546,0.177-3.822     c-0.058-1.258-0.117-2.517-0.174-3.77c-0.106-1.258-0.296-2.552-0.443-3.812c-0.171-1.258-0.472-2.459-0.719-3.665     c-0.265-1.2-0.649-2.354-0.961-3.502c-0.338-1.142-0.762-2.236-1.154-3.31c-0.407-1.069-0.897-2.079-1.324-3.077     c-0.453-0.988-0.951-1.921-1.417-2.829c-0.49-0.896-1.013-1.733-1.486-2.549c-0.5-0.801-1.002-1.554-1.479-2.268     c-0.508-0.692-0.99-1.349-1.442-1.966c-0.474-0.601-0.918-1.16-1.34-1.668c-0.437-0.495-0.838-0.949-1.201-1.36     c-0.739-0.808-1.364-1.399-1.787-1.803c-0.434-0.391-0.666-0.6-0.666-0.6s0.187,0.248,0.537,0.714     c0.344,0.47,0.813,1.183,1.417,2.077c0.591,0.905,1.269,2.026,2.029,3.315c0.738,1.303,1.521,2.795,2.333,4.437     c0.784,1.657,1.562,3.477,2.315,5.422c0.335,0.988,0.731,1.983,1.042,3.031c0.28,1.057,0.668,2.103,0.929,3.205     c0.245,1.105,0.562,2.212,0.76,3.357c0.17,1.147,0.418,2.307,0.569,3.465c0.114,1.165,0.274,2.308,0.36,3.508     c0.039,1.213,0.078,2.43,0.116,3.647c-0.038,1.2-0.076,2.4-0.114,3.595c-0.084,1.192-0.246,2.375-0.362,3.552     c-0.153,1.173-0.4,2.323-0.57,3.473c-0.198,1.146-0.515,2.252-0.76,3.357c-0.262,1.102-0.649,2.148-0.93,3.205     c-0.311,1.047-0.707,2.042-1.042,3.031c-0.753,1.945-1.531,3.765-2.316,5.421c-0.811,1.642-1.595,3.133-2.333,4.437     c-0.76,1.289-1.438,2.41-2.029,3.315c-0.604,0.894-1.073,1.607-1.417,2.077c-0.35,0.465-0.537,0.713-0.537,0.713L10.388,36.18z"></path></g><g><path fill="#eeeeee" d="M-10.383,36.175c0,0-0.187-0.248-0.537-0.713c-0.344-0.47-0.813-1.183-1.417-2.077     c-0.591-0.905-1.269-2.026-2.029-3.315c-0.738-1.304-1.522-2.795-2.333-4.437c-0.785-1.657-1.562-3.477-2.316-5.421     c-0.336-0.988-0.732-1.983-1.042-3.031c-0.28-1.057-0.668-2.103-0.93-3.205c-0.245-1.105-0.562-2.212-0.76-3.357     c-0.17-1.15-0.417-2.3-0.57-3.473c-0.116-1.177-0.278-2.36-0.362-3.552c-0.038-1.195-0.076-2.396-0.114-3.595     c0.039-1.217,0.078-2.435,0.116-3.647c0.086-1.2,0.247-2.343,0.36-3.508c0.15-1.158,0.399-2.318,0.569-3.465     c0.198-1.145,0.515-2.252,0.76-3.357c0.261-1.102,0.649-2.148,0.929-3.205c0.311-1.048,0.707-2.043,1.042-3.031     c0.753-1.945,1.531-3.765,2.315-5.422c0.812-1.641,1.595-3.133,2.333-4.437c0.76-1.289,1.438-2.41,2.029-3.315     c0.604-0.895,1.073-1.607,1.417-2.077c0.35-0.466,0.537-0.714,0.537-0.714s-0.231,0.209-0.666,0.6     c-0.423,0.403-1.047,0.995-1.787,1.803c-0.362,0.411-0.764,0.865-1.201,1.36c-0.422,0.508-0.866,1.067-1.34,1.668     c-0.453,0.617-0.935,1.274-1.442,1.966c-0.477,0.714-0.979,1.467-1.479,2.268c-0.474,0.816-0.997,1.653-1.486,2.549     c-0.465,0.908-0.964,1.841-1.417,2.829c-0.427,0.999-0.917,2.008-1.324,3.077c-0.393,1.074-0.816,2.168-1.154,3.31     c-0.312,1.149-0.696,2.303-0.961,3.502c-0.247,1.206-0.548,2.407-0.719,3.665c-0.147,1.259-0.337,2.554-0.443,3.812     c-0.058,1.253-0.117,2.511-0.175,3.77c0.059,1.275,0.118,2.551,0.177,3.822c0.108,1.266,0.296,2.52,0.441,3.766     c0.168,1.244,0.471,2.456,0.718,3.658c0.265,1.2,0.649,2.354,0.961,3.503c0.338,1.142,0.762,2.236,1.154,3.31     c0.407,1.069,0.896,2.079,1.323,3.077c0.453,0.988,0.951,1.922,1.417,2.829c0.49,0.896,1.012,1.733,1.486,2.549     c0.5,0.801,1.002,1.555,1.479,2.269c0.508,0.692,0.989,1.349,1.442,1.966c0.473,0.601,0.918,1.161,1.339,1.669     c0.437,0.495,0.838,0.949,1.201,1.36c0.739,0.808,1.363,1.4,1.786,1.803c0.434,0.391,0.666,0.6,0.666,0.6L-10.383,36.175z"></path></g><g><path fill="#eeeeee" d="M10.388,36.18c0,0,0.231-0.209,0.666-0.6c0.423-0.403,1.047-0.995,1.786-1.803     c0.363-0.411,0.764-0.865,1.201-1.36c0.421-0.508,0.866-1.068,1.339-1.669c0.453-0.617,0.935-1.273,1.442-1.966     c0.477-0.714,0.979-1.467,1.479-2.269c0.474-0.816,0.996-1.654,1.486-2.549c0.465-0.907,0.964-1.841,1.417-2.829     c0.427-0.999,0.916-2.008,1.323-3.077c0.393-1.074,0.816-2.168,1.154-3.31c0.312-1.149,0.696-2.303,0.961-3.503     c0.247-1.203,0.549-2.414,0.718-3.658c0.145-1.247,0.333-2.5,0.441-3.766c0.059-1.271,0.118-2.546,0.177-3.822     c-0.058-1.258-0.117-2.517-0.174-3.77c-0.106-1.258-0.296-2.552-0.443-3.812c-0.171-1.258-0.472-2.459-0.719-3.665     c-0.265-1.2-0.649-2.354-0.961-3.502c-0.338-1.142-0.762-2.236-1.154-3.31c-0.407-1.069-0.897-2.079-1.324-3.077     c-0.453-0.988-0.951-1.921-1.417-2.829c-0.49-0.896-1.013-1.733-1.486-2.549c-0.5-0.801-1.002-1.554-1.479-2.268     c-0.508-0.692-0.99-1.349-1.442-1.966c-0.474-0.601-0.918-1.16-1.34-1.668c-0.437-0.495-0.838-0.949-1.201-1.36     c-0.739-0.808-1.364-1.399-1.787-1.803c-0.434-0.391-0.666-0.6-0.666-0.6s0.187,0.248,0.537,0.714     c0.344,0.47,0.813,1.183,1.417,2.077c0.591,0.905,1.269,2.026,2.029,3.315c0.738,1.303,1.521,2.795,2.333,4.437     c0.784,1.657,1.562,3.477,2.315,5.422c0.335,0.988,0.731,1.983,1.042,3.031c0.28,1.057,0.668,2.103,0.929,3.205     c0.245,1.105,0.562,2.212,0.76,3.357c0.17,1.147,0.418,2.307,0.569,3.465c0.114,1.165,0.274,2.308,0.36,3.508     c0.039,1.213,0.078,2.43,0.116,3.647c-0.038,1.2-0.076,2.4-0.114,3.595c-0.084,1.192-0.246,2.375-0.362,3.552     c-0.153,1.173-0.4,2.323-0.57,3.473c-0.198,1.146-0.515,2.252-0.76,3.357c-0.262,1.102-0.649,2.148-0.93,3.205     c-0.311,1.047-0.707,2.042-1.042,3.031c-0.753,1.945-1.531,3.765-2.316,5.421c-0.811,1.642-1.595,3.133-2.333,4.437     c-0.76,1.289-1.438,2.41-2.029,3.315c-0.604,0.894-1.073,1.607-1.417,2.077c-0.35,0.465-0.537,0.713-0.537,0.713L10.388,36.18z"></path></g><g><path fill="#eeeeee" d="M0,37.814c0,0,0.179-1.182,0.411-3.25c0.233-2.068,0.537-5.022,0.79-8.567     c0.134-1.772,0.277-3.693,0.373-5.724c0.11-2.031,0.242-4.173,0.302-6.389c0.067-2.216,0.183-4.505,0.217-6.832     c0.033-2.327,0.067-4.69,0.101-7.054C2.188-2.364,2.181-4.728,2.174-7.055c-0.008-2.326-0.097-4.616-0.139-6.832     C2-16.102,1.892-18.244,1.806-20.275c-0.073-2.031-0.194-3.952-0.308-5.724c-0.212-3.545-0.483-6.5-0.692-8.567     c-0.208-2.068-0.374-3.25-0.374-3.25h-0.862c0,0-0.166,1.182-0.374,3.25c-0.209,2.067-0.48,5.022-0.692,8.567     c-0.114,1.772-0.235,3.693-0.308,5.724C-1.892-18.244-2-16.102-2.035-13.886c-0.042,2.216-0.131,4.505-0.139,6.832     c-0.007,2.327-0.014,4.69-0.021,7.054c0.034,2.363,0.068,4.727,0.101,7.054c0.034,2.326,0.149,4.616,0.217,6.832     c0.06,2.216,0.192,4.358,0.302,6.389c0.096,2.031,0.239,3.952,0.373,5.724c0.253,3.545,0.557,6.5,0.79,8.567     C-0.179,36.633,0,37.814,0,37.814z"></path></g></g></symbol><g xmlns="http://www.w3.org/2000/svg"><path fill="#eeeeee" d="M77.317,36.623c-0.896-8.528-5.06-16.196-11.724-21.593c-5.698-4.615-12.866-7.156-20.185-7.156   c-9.742,0-18.843,4.338-24.967,11.901c-11.14,13.757-9.011,33.971,4.745,45.11C30.884,69.5,38.053,72,45.371,72   c0.001,0,0.001,0,0.002,0c9.742,0,18.841-4.297,24.965-11.859C75.734,53.477,78.214,45.151,77.317,36.623z M70.839,23.246   c-0.033,0.447-0.085,1.012-0.142,1.663c-0.092,0.889-0.24,1.979-0.422,3.203c-0.204,1.222-0.477,2.597-0.81,4.074   c-0.212,0.872-0.465,1.792-0.737,2.728c-0.003-0.006-0.006-0.01-0.009-0.015c-0.479-0.81-0.97-1.649-1.52-2.469   c-0.58-0.79-1.12-1.64-1.75-2.439c-0.65-0.78-1.271-1.6-1.99-2.37c-0.729-0.75-1.46-1.54-2.21-2.27   c-0.53-0.462-1.061-0.936-1.591-1.407c0.012-0.016,0.024-0.034,0.035-0.05c1.683-2.41,3.024-4.467,3.951-5.918   c0.425-0.665,0.756-1.196,0.994-1.585C67.077,18.378,69.155,20.691,70.839,23.246z M26.601,63.918   c0.326-0.316,0.767-0.75,1.315-1.303c1.21-1.22,2.923-2.979,4.904-5.146c0.016-0.018,0.034-0.037,0.05-0.055   c0.504,0.371,1.01,0.742,1.512,1.112c0.864,0.587,1.794,1.139,2.681,1.699c0.897,0.545,1.826,0.977,2.73,1.445   c0.909,0.454,1.851,0.808,2.751,1.206c0.91,0.377,1.833,0.674,2.729,0.98c0.006,0.002,0.011,0.003,0.017,0.005   c-0.858,0.461-1.701,0.898-2.51,1.287c-1.375,0.633-2.656,1.184-3.809,1.638c-1.16,0.433-2.179,0.8-3.03,1.074   c-0.62,0.189-1.141,0.353-1.56,0.476C31.599,67.257,28.971,65.777,26.601,63.918z M64.46,16.247   c-0.331,0.314-0.782,0.748-1.343,1.301c-1.226,1.208-2.959,2.948-4.967,5.095c-0.015,0.015-0.03,0.032-0.045,0.047   c-0.582-0.428-1.163-0.855-1.745-1.28c-0.87-0.59-1.771-1.13-2.65-1.68c-0.88-0.54-1.82-0.98-2.72-1.44   c-0.91-0.46-1.85-0.81-2.75-1.21c-0.91-0.38-1.84-0.67-2.73-0.98c-0.006-0.002-0.012-0.003-0.018-0.005   c0.857-0.46,1.7-0.897,2.507-1.285c1.375-0.633,2.655-1.184,3.809-1.637c1.159-0.433,2.178-0.801,3.029-1.075   c0.577-0.176,1.165-0.328,1.637-0.448C59.336,12.77,62.04,14.302,64.46,16.247z M47.33,19.21c0.84,0.42,1.71,0.79,2.55,1.26   c0.83,0.49,1.7,0.93,2.53,1.44c0.82,0.54,1.66,1.05,2.47,1.62l1.429,1.085c-0.453,0.491-0.911,0.989-1.378,1.513   c-1.128,1.248-2.328,2.556-3.52,3.949c-1.197,1.389-2.462,2.801-3.695,4.278c-0.854,1.025-1.724,2.067-2.59,3.106   c-1.063-0.836-2.13-1.675-3.179-2.5c-1.513-1.189-3.044-2.307-4.504-3.417c-1.456-1.115-2.901-2.145-4.264-3.131   c-0.567-0.417-1.119-0.809-1.666-1.196c0.39-0.452,0.781-0.905,1.17-1.355c0.675-0.723,1.395-1.398,2.082-2.095   c0.708-0.674,1.466-1.285,2.174-1.935c0.724-0.633,1.503-1.179,2.236-1.763c0.741-0.572,1.535-1.042,2.266-1.576   c0.524-0.36,1.058-0.681,1.585-1c0.583,0.202,1.171,0.406,1.764,0.646C45.61,18.51,46.49,18.81,47.33,19.21z M31.54,30.438   c1.248,1.127,2.556,2.328,3.949,3.52c1.389,1.197,2.801,2.462,4.278,3.695c1.02,0.85,2.057,1.715,3.09,2.577   c-0.849,1.054-1.7,2.112-2.537,3.151c-1.206,1.5-2.34,3.017-3.467,4.463c-1.131,1.443-2.176,2.875-3.178,4.226   c-0.421,0.56-0.817,1.104-1.208,1.645c-0.398-0.344-0.796-0.688-1.193-1.03c-0.723-0.675-1.398-1.395-2.095-2.082   c-0.674-0.708-1.285-1.466-1.935-2.174c-0.633-0.724-1.179-1.503-1.763-2.236c-0.572-0.741-1.042-1.535-1.576-2.266   c-0.361-0.525-0.683-1.06-1.002-1.588c0.202-0.581,0.405-1.169,0.648-1.756c0.37-0.825,0.666-1.699,1.071-2.543   c0.418-0.838,0.79-1.714,1.259-2.553c0.488-0.826,0.932-1.701,1.438-2.523c0.534-0.808,1.025-1.626,1.594-2.442   c0.369-0.486,0.739-0.975,1.109-1.463C30.517,29.511,31.015,29.97,31.54,30.438z M43.451,60.744   c-0.838-0.418-1.714-0.79-2.553-1.259c-0.826-0.488-1.701-0.932-2.523-1.438c-0.808-0.533-1.626-1.024-2.442-1.594   c-0.43-0.325-0.86-0.653-1.291-0.979c0.446-0.495,0.897-0.996,1.357-1.523c1.112-1.261,2.297-2.581,3.473-3.987   c1.181-1.402,2.429-2.828,3.645-4.319c0.838-1.029,1.692-2.077,2.542-3.121c1.049,0.844,2.101,1.691,3.135,2.524   c1.5,1.206,3.018,2.34,4.464,3.467c1.442,1.131,2.875,2.176,4.226,3.178c0.56,0.421,1.104,0.816,1.644,1.208   c-0.354,0.409-0.707,0.818-1.06,1.227c-0.68,0.727-1.378,1.377-2.058,2.066c-0.699,0.666-1.463,1.283-2.169,1.932   c-0.724,0.633-1.504,1.179-2.235,1.762c-0.742,0.573-1.536,1.044-2.266,1.577c-0.525,0.36-1.059,0.682-1.586,1.001   c-0.582-0.203-1.17-0.406-1.758-0.649C45.169,61.445,44.295,61.15,43.451,60.744z M55.375,45.898   c-1.402-1.181-2.828-2.429-4.318-3.645c-1.035-0.843-2.087-1.701-3.137-2.556c0.832-1.058,1.667-2.12,2.487-3.163   c1.189-1.513,2.306-3.044,3.417-4.504c1.115-1.456,2.145-2.901,3.131-4.264c0.416-0.566,0.808-1.118,1.194-1.664   c0.464,0.4,0.93,0.802,1.392,1.197c0.729,0.68,1.38,1.38,2.07,2.06c0.659,0.7,1.279,1.46,1.93,2.17c0.63,0.72,1.18,1.5,1.76,2.23   c0.57,0.75,1.04,1.54,1.58,2.27c0.358,0.52,0.678,1.055,0.995,1.583c-0.203,0.583-0.406,1.173-0.65,1.761   c-0.369,0.825-0.665,1.699-1.07,2.543c-0.418,0.838-0.79,1.714-1.259,2.554c-0.489,0.828-0.93,1.695-1.441,2.529   c-0.538,0.817-1.05,1.662-1.616,2.472c-0.316,0.417-0.635,0.837-0.952,1.255c-0.494-0.446-0.996-0.897-1.523-1.357   C58.102,48.258,56.781,47.074,55.375,45.898z M55.968,11.446c-0.349,0.034-0.732,0.077-1.136,0.138   c-0.447,0.075-0.998,0.159-1.537,0.249c-0.535,0.107-1.141,0.235-1.758,0.375c-0.612,0.161-1.277,0.332-1.964,0.513   c-0.678,0.211-1.399,0.434-2.138,0.688c-0.729,0.278-1.505,0.544-2.286,0.865c-0.76,0.336-1.556,0.673-2.35,1.065   c-0.854-0.224-1.701-0.383-2.507-0.55c-0.83-0.16-1.641-0.26-2.42-0.38c-0.77-0.09-1.521-0.16-2.221-0.23   c-0.71-0.03-1.39-0.06-2.02-0.09c-0.63-0.01-1.22-0.02-1.77-0.01c-0.54,0.02-1.04,0.04-1.5,0.06   c-0.479,0.032-0.9,0.072-1.266,0.112c4.814-3.055,10.44-4.724,16.315-4.724C49.028,9.528,52.604,10.198,55.968,11.446z    M28.683,14.524c0.441,0.032,1,0.086,1.667,0.146c0.89,0.09,1.97,0.24,3.19,0.42c1.22,0.21,2.59,0.48,4.07,0.81   c0.868,0.212,1.779,0.465,2.712,0.739c-0.004,0.002-0.008,0.004-0.012,0.006c-0.812,0.486-1.653,0.969-2.465,1.527   c-0.799,0.577-1.646,1.118-2.441,1.751c-0.784,0.645-1.609,1.266-2.365,1.978c-0.742,0.726-1.516,1.434-2.244,2.191   c-0.479,0.538-0.959,1.078-1.439,1.617c-0.016-0.011-0.035-0.024-0.051-0.035c-2.41-1.683-4.467-3.025-5.918-3.952   c-0.665-0.425-1.196-0.755-1.585-0.994C23.795,18.286,26.121,16.209,28.683,14.524z M21.657,20.906   c0.314,0.331,0.748,0.783,1.302,1.345c1.208,1.226,2.948,2.959,5.095,4.967c0.015,0.014,0.031,0.029,0.045,0.042   c-0.419,0.57-0.84,1.141-1.258,1.709c-0.586,0.864-1.138,1.794-1.699,2.681c-0.545,0.897-0.977,1.826-1.445,2.73   c-0.455,0.909-0.808,1.851-1.206,2.751c-0.377,0.91-0.674,1.833-0.981,2.729c-0.001,0.005-0.002,0.009-0.004,0.014   c-0.46-0.857-0.897-1.699-1.285-2.506c-0.633-1.375-1.184-2.655-1.637-3.809c-0.433-1.159-0.801-2.179-1.075-3.03   c-0.202-0.665-0.375-1.163-0.501-1.572C18.108,26.12,19.652,23.401,21.657,20.906z M16.836,29.424   c0.037,0.361,0.085,0.778,0.16,1.27c0.075,0.447,0.159,0.919,0.249,1.458c0.107,0.535,0.235,1.102,0.375,1.719   c0.161,0.612,0.332,1.257,0.513,1.944c0.211,0.678,0.434,1.39,0.688,2.129c0.278,0.729,0.544,1.5,0.865,2.281   c0.335,0.759,0.672,1.551,1.063,2.344c-0.218,0.856-0.382,1.702-0.553,2.515c-0.151,0.831-0.251,1.641-0.372,2.412   c-0.095,0.775-0.165,1.521-0.229,2.228c-0.034,0.709-0.066,1.382-0.097,2.014c-0.008,0.633-0.014,1.224-0.007,1.77   c0.023,0.546,0.045,1.047,0.063,1.5c0.029,0.473,0.068,0.888,0.107,1.248C14.618,48.263,13.567,38.292,16.836,29.424z    M19.935,56.684c0.033-0.441,0.086-1.002,0.145-1.667c0.091-0.89,0.239-1.963,0.421-3.188c0.204-1.222,0.478-2.589,0.81-4.066   c0.212-0.871,0.464-1.787,0.737-2.722c0.003,0.006,0.006,0.011,0.009,0.017c0.486,0.812,0.969,1.653,1.527,2.465   c0.577,0.799,1.118,1.646,1.751,2.441c0.645,0.784,1.266,1.61,1.978,2.366c0.726,0.741,1.434,1.516,2.191,2.243   c0.477,0.424,0.956,0.851,1.434,1.275c-0.014,0.021-0.03,0.042-0.044,0.062c-1.708,2.389-3.073,4.429-4.014,5.867   c-0.429,0.654-0.763,1.179-1.005,1.563C23.522,61.376,21.537,59.129,19.935,56.684z M45.371,70.429   c-3.608-0.001-7.173-0.666-10.528-1.906c0.354-0.035,0.761-0.083,1.217-0.151c0.447-0.076,0.941-0.159,1.48-0.249   c0.535-0.107,1.112-0.235,1.729-0.375c0.612-0.161,1.264-0.333,1.951-0.514c0.678-0.21,1.393-0.434,2.131-0.688   c0.729-0.278,1.501-0.544,2.282-0.865c0.759-0.335,1.552-0.672,2.345-1.063c0.857,0.218,1.704,0.383,2.517,0.553   c0.831,0.151,1.641,0.252,2.412,0.372c0.775,0.095,1.521,0.164,2.228,0.229c0.71,0.034,1.383,0.066,2.015,0.097   c0.633,0.008,1.224,0.014,1.77,0.007c0.546-0.023,1.047-0.045,1.5-0.063c0.483-0.029,0.906-0.069,1.272-0.11   C56.876,68.759,51.248,70.429,45.371,70.429z M62.097,65.434c-0.441-0.033-1.003-0.087-1.668-0.145   c-0.89-0.092-1.963-0.24-3.188-0.422c-1.222-0.204-2.589-0.478-4.066-0.81c-0.871-0.213-1.786-0.465-2.722-0.737   c0.005-0.003,0.01-0.006,0.016-0.009c0.812-0.486,1.653-0.969,2.465-1.527c0.798-0.576,1.646-1.117,2.44-1.751   c0.787-0.646,1.605-1.262,2.37-1.981c0.75-0.732,1.546-1.466,2.27-2.219c0.414-0.467,0.831-0.936,1.247-1.403   c0.021,0.015,0.042,0.03,0.062,0.044c2.389,1.708,4.429,3.073,5.867,4.015c0.653,0.429,1.177,0.762,1.562,1.004   C66.809,61.819,64.564,63.811,62.097,65.434z M69.336,58.773c-0.317-0.326-0.753-0.77-1.309-1.32   c-1.22-1.211-2.979-2.923-5.146-4.905c-0.018-0.017-0.037-0.034-0.056-0.051c0.38-0.516,0.76-1.032,1.138-1.545   c0.589-0.87,1.121-1.773,1.677-2.65c0.539-0.888,0.976-1.824,1.442-2.725c0.454-0.909,0.808-1.851,1.206-2.752   c0.377-0.91,0.674-1.833,0.981-2.728c0.002-0.005,0.003-0.011,0.005-0.017c0.46,0.857,0.896,1.701,1.285,2.51   c0.631,1.37,1.19,2.65,1.641,3.81c0.43,1.16,0.8,2.18,1.069,3.03c0.197,0.644,0.371,1.184,0.496,1.612   C72.69,53.79,71.206,56.392,69.336,58.773z M73.939,50.583c-0.035-0.368-0.084-0.791-0.159-1.272c-0.07-0.45-0.16-0.94-0.25-1.48   c-0.101-0.54-0.23-1.11-0.37-1.73c-0.16-0.61-0.33-1.27-0.51-1.95c-0.21-0.68-0.44-1.39-0.69-2.13c-0.28-0.73-0.55-1.5-0.87-2.29   c-0.334-0.757-0.669-1.542-1.061-2.338c0.218-0.857,0.383-1.705,0.553-2.518c0.151-0.831,0.252-1.641,0.372-2.412   c0.096-0.775,0.165-1.521,0.23-2.228c0.034-0.709,0.066-1.382,0.096-2.014c0.009-0.633,0.015-1.224,0.008-1.77   c-0.023-0.545-0.045-1.046-0.063-1.499c-0.028-0.467-0.066-0.896-0.106-1.27c2.483,3.913,4.056,8.372,4.554,13.115   C76.171,41.544,75.559,46.236,73.939,50.583z"></path><path fill="#eeeeee" d="M85.769,38.625c-0.196-1.799-0.536-3.534-0.95-5.193c-0.859-3.313-2.089-6.305-3.493-8.894   c-1.417-2.586-2.988-4.777-4.527-6.574c-1.53-1.808-3.004-3.236-4.302-4.329c-1.277-1.101-2.337-1.871-3.087-2.368   c-0.744-0.487-1.163-0.722-1.17-0.726l-0.045-0.036l-2.326,2.872l1.285,1.041l2.206-2.724c0.293,0.278,0.627,0.595,1.023,0.972   c0.472,0.443,1.028,0.946,1.584,1.547c1.147,1.17,2.465,2.696,3.755,4.577c1.284,1.884,2.554,4.127,3.605,6.698   c1.034,2.575,1.847,5.476,2.281,8.581c0.206,1.556,0.314,3.159,0.342,4.791c-0.003,1.634-0.081,3.296-0.304,4.967   c-0.399,3.345-1.32,6.707-2.663,9.93c-0.689,1.606-1.486,3.175-2.378,4.696c-0.928,1.5-1.931,2.961-3.042,4.341l-0.88,1.039   c-0.313,0.387-0.6,0.669-0.892,0.983c-0.559,0.623-1.221,1.234-1.843,1.855c-1.303,1.188-2.671,2.295-4.099,3.303   c-2.874,1.982-5.971,3.583-9.16,4.669c-1.587,0.565-3.197,0.987-4.795,1.329c-1.602,0.313-3.192,0.54-4.757,0.662   c-3.129,0.221-6.134,0.029-8.869-0.448c-2.733-0.494-5.19-1.269-7.3-2.134c-2.11-0.872-3.869-1.84-5.262-2.724   c-1.297-0.802-2.262-1.533-3.001-2.025l2.205-2.723l-1.285-1.041l-2.326,2.872l0.043,0.035c0.002,0.002,0.32,0.364,0.956,0.994   c0.636,0.627,1.621,1.512,2.962,2.531c1.331,1.036,3.04,2.185,5.124,3.306c2.079,1.131,4.548,2.212,7.372,3.061   c2.824,0.835,6.006,1.416,9.425,1.568c1.709,0.06,3.478,0.031,5.277-0.15c1.795-0.201,3.633-0.484,5.467-0.95   c1.825-0.487,3.664-1.081,5.466-1.847c1.799-0.769,3.562-1.692,5.26-2.758c1.686-1.085,3.307-2.302,4.83-3.646   c0.743-0.697,1.489-1.365,2.207-2.155c0.357-0.38,0.743-0.774,1.031-1.126l0.974-1.135c1.261-1.602,2.432-3.276,3.444-5.038   c0.999-1.77,1.852-3.609,2.562-5.482c0.689-1.882,1.227-3.799,1.604-5.719c0.374-1.921,0.573-3.844,0.67-5.73   C86.05,42.278,85.944,40.422,85.769,38.625z"></path><path fill="#eeeeee" d="M52.577,85H49v-2h-8v2h-2.799c-3.052,0-5.535,2.319-5.535,5s2.483,5,5.535,5h14.376   c3.052,0,5.535-2.319,5.535-5S55.629,85,52.577,85z M52.577,93H38.201c-1.916,0-3.535-1.448-3.535-3s1.619-3,3.535-3h14.376   c1.916,0,3.535,1.448,3.535,3S54.493,93,52.577,93z"></path></g></g><g id="SvgjsG16766" featureKey="nameFeature-0" transform="matrix(0.5158842050293357,0,0,0.5158842050293357,54.96812925695388,197.80990563245484)" fill="#eeeeee"><path d="M19.004 11.998999999999999 l5.2844 5.2848 l0 7.809 l-5.2844 5.2844 l-8.044 0 l0 6.3848 l1.3632 3.237 l-10.323 0 l1.3632 -3.237 l0 -21.526 l-1.3632 -3.237 l17.003 0 z M16.444 23.315 l0 -4.2537 l-1.0742 -1.0742 l-4.4094 0 l0 6.4026 l4.4094 0 z M58.657000000000004 40 l-9.3001 0 l0.8526 -2.024 l-1.2963 -5.1364 l-3.6014 1.2174 l-3.6014 -1.2174 l-1.2963 5.1364 l0.8526 2.024 l-9.247 0 l1.5124 -2.8885 l5.8272 -23.087 l-0.8526 -2.024 l13.611 0 l-0.8526 2.024 l5.7776 22.892 z M45.312000000000005 27.707 l2.1246 -0.71828 l-2.1246 -8.4172 l-2.1241 8.4172 z M83.40400000000001 11.998999999999999 l5.2844 5.2848 l0 7.809 l-5.2844 5.2844 l-8.044 0 l0 6.3848 l1.3632 3.237 l-10.323 0 l1.3632 -3.237 l0 -21.526 l-1.3632 -3.237 l17.003 0 z M80.84400000000001 23.315 l0 -4.2537 l-1.0742 -1.0742 l-4.4094 0 l0 6.4026 l4.4094 0 z M112.12600000000002 34.0124 l4.5852 -2.3686 l-2.7631 8.3564 l-17.528 0 l1.3632 -3.237 l0 -21.526 l-1.3632 -3.237 l16.762 0 l2.4181 7.3808 l-4.24 -1.393 l-5.9803 0 l0 4.451 l3.6524 0 l2.4394 -0.80156 l0 7.5914 l-2.4394 -0.80208 l-3.6524 0 l0 5.5857 l6.7462 0 z M146.44500000000002 34.0116 l2.2669 -0.000078124 l-1.9848 5.9884 l-5.7856 -0.0005078 l-2.8032 -2.8038 l0 -5.7998 l-1.0182 -1.0182 l-3.7208 0 l0 6.3848 l1.3632 3.237 l-10.323 0 l1.3632 -3.237 l0 -21.526 l-1.3632 -3.237 l17.003 0 l5.2844 5.2844 l0 7.8095 l-2.7869 2.7869 l1.7945 1.794 l0 3.6281 z M138.88400000000001 23.315 l0 -4.2537 l-1.0742 -1.0742 l-4.4094 0 l0 6.4026 l4.4094 0 z M196.84000000000003 39.9975391 l1.3623 -3.237 l0 -11.985 l-6.4536 15.225 l-2.5633 0 l-6.456 -15.195 l0 11.961 l1.3647 3.236 l-10.323 0.0039844 l1.3617 -3.237 l-0.0079296 -21.52 l-1.3652 -3.236 l10.323 -0.0039844 l6.3792 15.015 l6.3668 -15.02 l10.323 -0.0039844 l-1.3622 3.2365 l0.0089064 21.521 l1.3642 3.236 z M241.53700000000003 40 l-9.3001 0 l0.8526 -2.024 l-1.2963 -5.1364 l-3.6014 1.2174 l-3.6014 -1.2174 l-1.2963 5.1364 l0.8526 2.024 l-9.247 0 l1.5124 -2.8885 l5.8272 -23.087 l-0.8526 -2.024 l13.611 0 l-0.8526 2.024 l5.7776 22.892 z M228.19200000000004 27.707 l2.1246 -0.71828 l-2.1246 -8.4172 l-2.1241 8.4172 z M266.40200000000004 23.13 l3.8021 3.8016 l0 9.5157 l-3.5523 3.5523 l-14.955 0 l-2.4176 -7.3808 l4.2392 1.393 l8.0142 0 l1.0742 -1.0747 l0 -2.3854 l-1.3042 -1.3047 l-7.8768 -1.4019 l-0.0089064 -0.0034766 l-4.1376 -4.138 l0 -8.1515 l3.5523 -3.5523 l13.962 0 l2.4176 7.3808 l-4.24 -1.393 l-7.0218 0 l-1.0742 1.0747 l0 1.447 l1.0742 1.0742 z M296.72400000000005 17.987 l-3.4744 -0.000039062 l0 18.775 l1.3637 3.237 l-10.323 0.0005078 l1.3627 -3.237 l0.0005078 -18.776 l-3.474 0.0005078 l-4.2404 1.393 l2.4181 -7.3808 l18.189 0 l2.4176 7.38 z M324.42600000000004 34.0124 l4.5852 -2.3686 l-2.7631 8.3564 l-17.528 0 l1.3632 -3.237 l0 -21.526 l-1.3632 -3.237 l16.762 0 l2.4181 7.3808 l-4.24 -1.393 l-5.9803 0 l0 4.451 l3.6524 0 l2.4394 -0.80156 l0 7.5914 l-2.4394 -0.80208 l-3.6524 0 l0 5.5857 l6.7462 0 z M358.745 34.0116 l2.2669 -0.000078124 l-1.9848 5.9884 l-5.7856 -0.0005078 l-2.8032 -2.8038 l0 -5.7998 l-1.0182 -1.0182 l-3.7208 0 l0 6.3848 l1.3632 3.237 l-10.323 0 l1.3632 -3.237 l0 -21.526 l-1.3632 -3.237 l17.003 0 l5.2844 5.2844 l0 7.8095 l-2.7869 2.7869 l1.7945 1.794 l0 3.6281 z M351.184 23.315 l0 -4.2537 l-1.0742 -1.0742 l-4.4094 0 l0 6.4026 l4.4094 0 z M385.882 23.13 l3.8021 3.8016 l0 9.5157 l-3.5523 3.5523 l-14.955 0 l-2.4176 -7.3808 l4.2392 1.393 l8.0142 0 l1.0742 -1.0747 l0 -2.3854 l-1.3042 -1.3047 l-7.8768 -1.4019 l-0.0089064 -0.0034766 l-4.1376 -4.138 l0 -8.1515 l3.5523 -3.5523 l13.962 0 l2.4176 7.3808 l-4.24 -1.393 l-7.0218 0 l-1.0742 1.0747 l0 1.447 l1.0742 1.0742 z"></path></g>
			</g>
		</svg>
	